<?xml version="1.0" encoding="utf-8"?>
<!-- Generator: Adobe Illustrator 21.1.0, SVG Export Plug-In . SVG Version: 6.00 Build 0)  -->
<svg version="1.1" id="Слой_1" xmlns="http://www.w3.org/2000/svg" xmlns:xlink="http://www.w3.org/1999/xlink" x="0px" y="0px"
	 viewBox="0 0 105 40" style="enable-background:new 0 0 105 40;" xml:space="preserve">
<style type="text/css">
	.st0{fill:#FFFFFF;}
	.st1{fill:#E3BB52;}
	.st2{fill:#00512A;}
	.st3{font-family:'ArialNarrow';}
	.st4{font-size:3.36364px;}
	.st5{fill:none;stroke:#00512A;}
	.st6{fill:#C4C4C4;}
	.st7{fill:#005B37;}
	.st8{fill:#005935;}
	.st9{fill:#00613B;}
	.st10{fill:#02633C;}
	.st11{fill:#076940;}
	.st12{font-family:'TimesNewRomanPS-BoldMT';}
	.st13{font-size:7.14291px;}
	.st14{fill:url(#SVGID_1_);}
	.st15{fill:url(#SVGID_2_);}
	.st16{enable-background:new    ;}
</style>
<path class="st0" d="M99,40H6c-3.3,0-6-2.7-6-6V6c0-3.3,2.7-6,6-6h93c3.3,0,6,2.7,6,6v28C105,37.3,102.3,40,99,40z"/>
<g>
	<g>
		<g transform="translate(-77.41 -150.52)">
			
				<image style="overflow:visible;enable-background:new    ;" width="5" height="5" xlink:href="47CE048D.jpg"  transform="matrix(0.11708 0 0 0.11708 103.09923 173.66003)">
			</image>
		</g>
	</g>
	<g>
		<g transform="translate(-77.41 -150.52)">
			
				<image style="overflow:visible;enable-background:new    ;" width="374" height="28" xlink:href="47CE048F.jpg"  transform="matrix(0.11708 0 0 0.11708 115.15822 161.48395)">
			</image>
		</g>
	</g>
	<g>
		<g transform="translate(-77.41 -150.52)">
			
				<image style="overflow:visible;enable-background:new    ;" width="34" height="16" xlink:href="47CE048A.jpg"  transform="matrix(0.11708 0 0 0.11708 90.22069 163.00597)">
			</image>
		</g>
	</g>
	<g>
		<g transform="translate(-77.41 -150.52)">
			
				<image style="overflow:visible;enable-background:new    ;" width="464" height="27" xlink:href="47CE048B.jpg"  transform="matrix(0.11708 0 0 0.11708 115.2753 169.67938)">
			</image>
		</g>
	</g>
	<g>
		<g transform="translate(-77.41 -150.52)">
			
				<image style="overflow:visible;enable-background:new    ;" width="32" height="15" xlink:href="47CE0495.jpg"  transform="matrix(0.11708 0 0 0.11708 90.45484 171.2014)">
			</image>
		</g>
	</g>
	<rect x="15.88631" y="29.22221" class="st1" width="73.19577" height="0.41797"/>
	<text transform="matrix(1.55 0 0 1 43.24643 34.9021)" class="st2 st3 st4">L</text>
	<text transform="matrix(1.55 0 0 1 43.24643 34.9021)" class="st5 st3 st4">L</text>
	<text transform="matrix(1.55 0 0 1 86.0936 34.88159)" class="st2 st3 st4">E</text>
	<text transform="matrix(1.55 0 0 1 86.0936 34.88159)" class="st5 st3 st4">E</text>
	<text transform="matrix(1.55 0 0 1 33.85531 34.85327)" class="st2 st3 st4">R</text>
	<text transform="matrix(1.55 0 0 1 33.85531 34.85327)" class="st5 st3 st4">R</text>
	<text transform="matrix(1.55 0 0 1 51.48275 34.96851)" class="st2 st3 st4">D</text>
	<text transform="matrix(1.55 0 0 1 51.48275 34.96851)" class="st5 st3 st4">D</text>
	<text transform="matrix(1.55 0 0 1 69.79575 34.90405)" class="st2 st3 st4">I</text>
	<text transform="matrix(1.55 0 0 1 69.79575 34.90405)" class="st5 st3 st4">I</text>
	<text transform="matrix(1.55 0 0 1 25.03939 34.80444)" class="st2 st3 st4">O</text>
	<text transform="matrix(1.55 0 0 1 25.03939 34.80444)" class="st5 st3 st4">O</text>
	<g>
		<path class="st6" d="M16.47872,21.00336c-1.04082,0.3044-2.04769,0.66383-3.02529,1.03731
			c-0.06556,0.01171-0.09483,0.05971-0.06791,0.1042c0.02693,0.04449,0.09249,0.06322,0.15923,0.04566l0,0
			c0.98931-0.11708,1.947-0.33836,2.90587-0.54909"/>
	</g>
	<g>
		<path class="st6" d="M38.10999,21.66251c2.21394-0.03981,4.29909-0.67905,6.55635-0.83242
			c2.04183-0.13464,4.0181-0.2763,6.04706-0.21308c0.27645,0.01109,0.55105,0.05032,0.81954,0.11708
			c1.00219,0.23416,1.78426,0.713,2.78645,0.95067c2.74313,0.65446,5.58812,0.31611,8.40032,0.16976
			c6.11496-0.32314,22.45081-0.94482,28.54704-0.72588c0.31026,0.03629,0.60295-0.10186,0.6533-0.3044
			c0.05034-0.20255-0.16274-0.40392-0.46832-0.43904c-2.22447-0.65798-15.05853-0.46831-17.41061-0.37582
			c-5.50265,0.2283-10.84958,0.77271-16.35107,0.92608c-1.75616,0.04683-3.32032-0.45309-4.85403-1.00101
			c-2.63542-0.93662-5.61973-0.36645-8.45652-0.18849c-2.14252,0.13815-4.14338,0.55495-6.21448,0.84296"/>
	</g>
	<g>
		<polygon class="st7" points="16.44828,5.09602 16.44828,5.09602 38.25165,5.09602 38.25165,5.09602 		"/>
		<polygon class="st8" points="35.44179,23.46433 38.25165,26.27419 16.44828,26.27419 19.25815,23.46433 		"/>
		<polygon class="st8" points="19.25815,23.46433 16.44828,26.27419 16.44828,5.09602 19.25815,7.90588 		"/>
		<polygon class="st9" points="19.25815,7.90588 16.44828,5.09602 38.25165,5.09602 35.44179,7.90588 		"/>
		<polygon class="st10" points="35.44179,7.90588 38.25165,5.09602 38.25165,26.27419 35.44179,23.46433 		"/>
		<rect x="19.25698" y="7.90588" class="st11" width="16.18481" height="15.55728"/>
	</g>
	<text transform="matrix(1 0 0 1 38.77816 9.93628)" class="st2 st12 st13">International</text>
	<text transform="matrix(1 0 0 1 38.77816 18.2146)" class="st2 st12 st13">Y</text>
	<text transform="matrix(1 0 0 1 43.14584 18.2146)" class="st2 st12 st13">acht</text>
	<text transform="matrix(1 0 0 1 38.65316 26.27417)" class="st2 st12 st13">T</text>
	<text transform="matrix(1 0 0 1 42.88705 26.27417)" class="st2 st12 st13">raining</text>
	<g>
		<path class="st6" d="M16.47404,12.80675c-1.13917,0.32079-2.23853,0.71066-3.30393,1.11692
			c-0.06556,0.01171-0.09483,0.06088-0.0679,0.1042c0.02693,0.04332,0.09249,0.06322,0.15923,0.04566l0,0
			c1.08414-0.12879,2.12964-0.38167,3.181-0.6088"/>
	</g>
	<g>
		<path class="st6" d="M38.07838,13.53966c2.12145-0.08078,4.13401-0.67788,6.30931-0.8254
			c2.04184-0.13347,4.01811-0.2763,6.04706-0.21308c0.27647,0.01085,0.55109,0.05008,0.81954,0.11708
			c1.00219,0.23416,1.78426,0.713,2.78645,0.95067c2.74313,0.65329,5.58812,0.31611,8.40032,0.16976
			c6.11497-0.32313,12.07421-0.94482,18.17162-0.72588c0.30909,0.03512,0.60296-0.10186,0.6533-0.3044
			c0.05035-0.20255-0.16273-0.40392-0.46831-0.43904c-2.22448-0.65798-4.68311-0.46831-7.03403-0.37582
			c-5.50265,0.2283-10.84958,0.77271-16.35106,0.92608c-1.75617,0.04683-3.32032-0.45309-4.85404-1.00101
			c-2.63542-0.93662-5.61973-0.36645-8.45652-0.1885c-2.03012,0.13113-3.93264,0.5128-5.889,0.79613"/>
	</g>
	<g>
		<path class="st6" d="M25.99948,23.49126"/>
	</g>
	
		<linearGradient id="SVGID_1_" gradientUnits="userSpaceOnUse" x1="90.81366" y1="-128.7005" x2="169.362" y2="-128.7005" gradientTransform="matrix(1 0 0 -1 -77.41 -108.52)">
		<stop  offset="0.05" style="stop-color:#E3BB52"/>
		<stop  offset="0.06" style="stop-color:#EACD7F"/>
		<stop  offset="0.07" style="stop-color:#F3E2B6"/>
		<stop  offset="0.08" style="stop-color:#FAF2DE"/>
		<stop  offset="0.09" style="stop-color:#FEFBF6"/>
		<stop  offset="0.09" style="stop-color:#FFFFFF"/>
		<stop  offset="0.09" style="stop-color:#FCF8ED"/>
		<stop  offset="0.09" style="stop-color:#F6EAC9"/>
		<stop  offset="0.1" style="stop-color:#F1DDA9"/>
		<stop  offset="0.1" style="stop-color:#EDD28D"/>
		<stop  offset="0.11" style="stop-color:#E9CA77"/>
		<stop  offset="0.11" style="stop-color:#E6C366"/>
		<stop  offset="0.12" style="stop-color:#E4BE5B"/>
		<stop  offset="0.13" style="stop-color:#E3BC54"/>
		<stop  offset="0.16" style="stop-color:#E3BB52"/>
		<stop  offset="0.16" style="stop-color:#E3BB52"/>
		<stop  offset="0.16" style="stop-color:#E3BB52"/>
		<stop  offset="0.17" style="stop-color:#E3BB52"/>
		<stop  offset="0.19" style="stop-color:#E3BB52"/>
		<stop  offset="0.2" style="stop-color:#E4BD57"/>
		<stop  offset="0.21" style="stop-color:#E6C366"/>
		<stop  offset="0.22" style="stop-color:#EACD7F"/>
		<stop  offset="0.24" style="stop-color:#F0DAA1"/>
		<stop  offset="0.25" style="stop-color:#F7EBCC"/>
		<stop  offset="0.26" style="stop-color:#FFFFFF"/>
		<stop  offset="0.27" style="stop-color:#FCF8ED"/>
		<stop  offset="0.27" style="stop-color:#F6EAC9"/>
		<stop  offset="0.28" style="stop-color:#F1DDA9"/>
		<stop  offset="0.28" style="stop-color:#EDD28D"/>
		<stop  offset="0.29" style="stop-color:#E9CA77"/>
		<stop  offset="0.3" style="stop-color:#E6C366"/>
		<stop  offset="0.3" style="stop-color:#E4BE5B"/>
		<stop  offset="0.32" style="stop-color:#E3BC54"/>
		<stop  offset="0.35" style="stop-color:#E3BB52"/>
		<stop  offset="0.36" style="stop-color:#E3BB52"/>
		<stop  offset="0.42" style="stop-color:#E3BB52"/>
		<stop  offset="0.43" style="stop-color:#E3BB52"/>
		<stop  offset="0.51" style="stop-color:#E3BB52"/>
		<stop  offset="0.56" style="stop-color:#FFFFFF"/>
		<stop  offset="0.57" style="stop-color:#F9F1DC"/>
		<stop  offset="0.58" style="stop-color:#F3E3B7"/>
		<stop  offset="0.59" style="stop-color:#EED698"/>
		<stop  offset="0.6" style="stop-color:#EACC7E"/>
		<stop  offset="0.62" style="stop-color:#E7C56A"/>
		<stop  offset="0.63" style="stop-color:#E5BF5D"/>
		<stop  offset="0.65" style="stop-color:#E3BC54"/>
		<stop  offset="0.69" style="stop-color:#E3BB52"/>
		<stop  offset="0.74" style="stop-color:#FFFFFF"/>
		<stop  offset="0.74" style="stop-color:#FCF8ED"/>
		<stop  offset="0.76" style="stop-color:#F6EAC9"/>
		<stop  offset="0.77" style="stop-color:#F1DDA9"/>
		<stop  offset="0.79" style="stop-color:#EDD28D"/>
		<stop  offset="0.81" style="stop-color:#E9CA77"/>
		<stop  offset="0.83" style="stop-color:#E6C366"/>
		<stop  offset="0.86" style="stop-color:#E4BE5B"/>
		<stop  offset="0.89" style="stop-color:#E3BC54"/>
		<stop  offset="1" style="stop-color:#E3BB52"/>
		<stop  offset="1" style="stop-color:#E8C56D"/>
		<stop  offset="1" style="stop-color:#EED18C"/>
		<stop  offset="1" style="stop-color:#F4DBA8"/>
		<stop  offset="1" style="stop-color:#F8E3BE"/>
		<stop  offset="1" style="stop-color:#FBE9CF"/>
		<stop  offset="1" style="stop-color:#FDEEDA"/>
		<stop  offset="1" style="stop-color:#FFF0E1"/>
		<stop  offset="1" style="stop-color:#FFF1E3"/>
	</linearGradient>
	<path class="st14" d="M13.56583,21.45177c2.3919-0.28216,4.59647-1.17078,7.0949-1.05955l0.52568,0.01405l-0.48704-0.11708
		l0.13932,0.0761c-0.31026,0.61817,0.64861,1.21878,1.53957,1.30073c1.45528,0.12761,2.69279-0.33953,4.00523-0.62753
		c2.94778-0.6326,5.93503-1.06482,8.94122-1.29371l0.57251,0.03981l-0.42148-0.09952l-0.03629-0.0679
		c0.56548,0.46831,0.94833,1.24805,1.94466,1.29488c2.49844,0.11708,4.80018-0.65212,7.30682-0.81954
		c2.04183-0.13464,4.0181-0.2763,6.04706-0.21308c0.27645,0.01103,0.55106,0.05025,0.81954,0.11708
		c1.00219,0.23416,1.78426,0.713,2.78645,0.95067c2.74313,0.65446,5.58812,0.31611,8.40032,0.16976
		c6.11496-0.32314,22.45081-0.94482,28.54704-0.72588c0.31026,0.03629,0.60295-0.10186,0.6533-0.3044
		c0.05034-0.20255-0.16274-0.40392-0.46832-0.43904c-2.22447-0.65798-15.05853-0.46831-17.41061-0.37582
		c-5.50265,0.2283-10.84959,0.77271-16.35107,0.92608c-1.75616,0.04683-3.32032-0.45309-4.85287-1.00101
		c-2.63542-0.93662-5.61973-0.36645-8.45652-0.18849c-2.30526,0.14869-4.44895,0.62051-6.68747,0.90618
		c-0.24118-0.22596-0.46831-0.45777-0.71301-0.67086l-0.59475-0.4285c-0.13302-0.05928-0.276-0.09304-0.42148-0.09952
		l-0.30089-0.01054c-2.23735,0.02693-4.3389,0.37582-6.5622,0.70247c-2.26077,0.32782-4.19723,0.94482-6.46854,1.27966
		c-0.08706,0.00299-0.17158-0.02956-0.23416-0.09015c-0.28567-0.33133-0.11708-0.74813-0.76452-1.0057l-0.03747-0.03161
		c-0.14595-0.08088-0.31086-0.1213-0.47768-0.11708l-0.55495,0.01054c-2.55112,0.23416-4.90321,1.00219-7.10661,1.8428
		c-0.06556,0.01171-0.09483,0.05971-0.0679,0.1042c0.02693,0.04449,0.09249,0.06322,0.15923,0.04566L13.56583,21.45177z"/>
	
		<linearGradient id="SVGID_2_" gradientUnits="userSpaceOnUse" x1="90.81483" y1="-120.64439" x2="158.98659" y2="-120.64439" gradientTransform="matrix(1 0 0 -1 -77.41 -108.52)">
		<stop  offset="0.05" style="stop-color:#E3BB52"/>
		<stop  offset="0.06" style="stop-color:#EACD7F"/>
		<stop  offset="0.07" style="stop-color:#F3E2B6"/>
		<stop  offset="0.08" style="stop-color:#FAF2DE"/>
		<stop  offset="0.09" style="stop-color:#FEFBF6"/>
		<stop  offset="0.09" style="stop-color:#FFFFFF"/>
		<stop  offset="0.09" style="stop-color:#FCF8ED"/>
		<stop  offset="0.09" style="stop-color:#F6EAC9"/>
		<stop  offset="0.1" style="stop-color:#F1DDA9"/>
		<stop  offset="0.1" style="stop-color:#EDD28D"/>
		<stop  offset="0.11" style="stop-color:#E9CA77"/>
		<stop  offset="0.11" style="stop-color:#E6C366"/>
		<stop  offset="0.12" style="stop-color:#E4BE5B"/>
		<stop  offset="0.13" style="stop-color:#E3BC54"/>
		<stop  offset="0.16" style="stop-color:#E3BB52"/>
		<stop  offset="0.16" style="stop-color:#E3BB52"/>
		<stop  offset="0.16" style="stop-color:#E3BB52"/>
		<stop  offset="0.17" style="stop-color:#E3BB52"/>
		<stop  offset="0.19" style="stop-color:#E3BB52"/>
		<stop  offset="0.2" style="stop-color:#E4BD57"/>
		<stop  offset="0.21" style="stop-color:#E6C366"/>
		<stop  offset="0.22" style="stop-color:#EACD7F"/>
		<stop  offset="0.24" style="stop-color:#F0DAA1"/>
		<stop  offset="0.25" style="stop-color:#F7EBCC"/>
		<stop  offset="0.26" style="stop-color:#FFFFFF"/>
		<stop  offset="0.27" style="stop-color:#FCF8ED"/>
		<stop  offset="0.27" style="stop-color:#F6EAC9"/>
		<stop  offset="0.28" style="stop-color:#F1DDA9"/>
		<stop  offset="0.28" style="stop-color:#EDD28D"/>
		<stop  offset="0.29" style="stop-color:#E9CA77"/>
		<stop  offset="0.3" style="stop-color:#E6C366"/>
		<stop  offset="0.3" style="stop-color:#E4BE5B"/>
		<stop  offset="0.32" style="stop-color:#E3BC54"/>
		<stop  offset="0.35" style="stop-color:#E3BB52"/>
		<stop  offset="0.36" style="stop-color:#E3BB52"/>
		<stop  offset="0.42" style="stop-color:#E3BB52"/>
		<stop  offset="0.43" style="stop-color:#E3BB52"/>
		<stop  offset="0.51" style="stop-color:#E3BB52"/>
		<stop  offset="0.56" style="stop-color:#FFFFFF"/>
		<stop  offset="0.57" style="stop-color:#F9F1DC"/>
		<stop  offset="0.58" style="stop-color:#F3E3B7"/>
		<stop  offset="0.59" style="stop-color:#EED698"/>
		<stop  offset="0.6" style="stop-color:#EACC7E"/>
		<stop  offset="0.62" style="stop-color:#E7C56A"/>
		<stop  offset="0.63" style="stop-color:#E5BF5D"/>
		<stop  offset="0.65" style="stop-color:#E3BC54"/>
		<stop  offset="0.69" style="stop-color:#E3BB52"/>
		<stop  offset="0.74" style="stop-color:#FFFFFF"/>
		<stop  offset="0.74" style="stop-color:#FCF8ED"/>
		<stop  offset="0.76" style="stop-color:#F6EAC9"/>
		<stop  offset="0.77" style="stop-color:#F1DDA9"/>
		<stop  offset="0.79" style="stop-color:#EDD28D"/>
		<stop  offset="0.81" style="stop-color:#E9CA77"/>
		<stop  offset="0.83" style="stop-color:#E6C366"/>
		<stop  offset="0.86" style="stop-color:#E4BE5B"/>
		<stop  offset="0.89" style="stop-color:#E3BC54"/>
		<stop  offset="1" style="stop-color:#E3BB52"/>
		<stop  offset="1" style="stop-color:#E8C56D"/>
		<stop  offset="1" style="stop-color:#EED18C"/>
		<stop  offset="1" style="stop-color:#F4DBA8"/>
		<stop  offset="1" style="stop-color:#F8E3BE"/>
		<stop  offset="1" style="stop-color:#FBE9CF"/>
		<stop  offset="1" style="stop-color:#FDEEDA"/>
		<stop  offset="1" style="stop-color:#FFF0E1"/>
		<stop  offset="1" style="stop-color:#FFF1E3"/>
	</linearGradient>
	<path class="st15" d="M13.56583,13.39682c2.3919-0.28333,4.59647-1.17078,7.0949-1.06072l0.52568,0.01522l-0.48704-0.11708
		l0.13932,0.0761c-0.31026,0.61817,0.64861,1.21878,1.53957,1.30073c1.45528,0.12761,2.69279-0.33952,4.00523-0.62754
		c2.94771-0.63347,5.93496-1.06648,8.94122-1.29605l0.57251,0.03981l-0.42148-0.09952l-0.03629-0.06791
		c0.56548,0.46831,0.94833,1.24805,1.94466,1.29488c2.49844,0.11708,4.80018-0.65212,7.30682-0.81954
		c2.04183-0.13464,4.0181-0.2763,6.04706-0.21308c0.27647,0.01082,0.5511,0.05005,0.81954,0.11708
		c1.00219,0.23416,1.78426,0.713,2.78645,0.95067c2.74313,0.65329,5.58812,0.31611,8.40032,0.16976
		c6.11496-0.32313,12.07422-0.94482,18.17162-0.72588c0.30909,0.03629,0.60295-0.10069,0.6533-0.3044
		c0.05034-0.20372-0.16274-0.40392-0.46832-0.43904c-2.22447-0.65798-4.68311-0.46831-7.03403-0.37582
		c-5.50265,0.22713-10.84958,0.77271-16.35106,0.92608c-1.75616,0.04683-3.32032-0.45309-4.85287-1.00101
		c-2.63542-0.93662-5.61973-0.36645-8.45652-0.1885c-2.30526,0.14869-4.44895,0.62051-6.68747,0.90618
		c-0.24118-0.22596-0.46831-0.4566-0.713-0.67085l-0.59475-0.4285c-0.13296-0.05946-0.27597-0.09323-0.42148-0.09952
		l-0.30089-0.01054c-2.23735,0.02693-4.3389,0.37582-6.5622,0.70247c-2.26077,0.32782-4.19723,0.94482-6.46854,1.27966
		c-0.08706,0.00299-0.17158-0.02956-0.23416-0.09015c-0.28567-0.33133-0.11708-0.74813-0.76452-1.00453l-0.03747-0.03161
		c-0.14559-0.08181-0.31076-0.12229-0.47768-0.11708l-0.55495,0.00937c-2.55112,0.23415-4.90321,1.00218-7.10661,1.8428
		c-0.06556,0.01171-0.09483,0.05971-0.06791,0.1042c0.02693,0.04449,0.09249,0.06322,0.15923,0.04566L13.56583,13.39682z"/>
	<text transform="matrix(1.55 0 0 1 15.87826 34.84155)" class="st2 st3 st4">W</text>
	<g class="st16">
		<text transform="matrix(1.55 0 0 1 15.87826 34.84155)" class="st5 st3 st4">W</text>
	</g>
	<text transform="matrix(1.55 0 0 1 59.60922 34.80737)" class="st2 st3 st4">W</text>
	<text transform="matrix(1.55 0 0 1 59.60922 34.80737)" class="st5 st3 st4">W</text>
	<text transform="matrix(1.55 0 0 1 77.49203 34.89331)" class="st2 st3 st4">D</text>
	<text transform="matrix(1.55 0 0 1 77.49203 34.89331)" class="st5 st3 st4">D</text>
</g>
</svg>
