<?xml version="1.0" standalone="no"?>
<!DOCTYPE svg PUBLIC "-//W3C//DTD SVG 20010904//EN"
 "http://www.w3.org/TR/2001/REC-SVG-20010904/DTD/svg10.dtd">
<svg version="1.0" xmlns="http://www.w3.org/2000/svg"
 width="394.000000pt" height="394.000000pt" viewBox="0 0 394.000000 394.000000"
 preserveAspectRatio="xMidYMid meet">
<metadata>
Created by potrace 1.11, written by Peter Selinger 2001-2013
</metadata>
<g transform="translate(0.000000,394.000000) scale(0.100000,-0.100000)"
fill="#000000" stroke="none">
<path d="M2657 3719 c-91 -9 -244 -37 -407 -74 -63 -14 -160 -28 -215 -31
l-100 -6 -75 40 -76 40 -12 -96 c-6 -54 -25 -152 -41 -218 -71 -288 -88 -441
-59 -538 19 -63 92 -131 164 -152 79 -23 182 -15 256 18 63 29 70 44 52 113
-17 65 -19 199 -4 255 46 171 251 296 426 260 124 -26 226 -105 279 -215 24
-49 29 -74 29 -135 1 -64 -3 -82 -26 -122 -54 -90 -145 -153 -403 -277 -418
-201 -609 -368 -714 -628 -48 -117 -80 -276 -81 -400 0 -72 -21 -93 -94 -93
-65 0 -110 27 -140 85 -21 40 -21 47 -24 1089 l-2 1049 -58 -6 c-77 -7 -162
-38 -222 -82 -54 -40 -63 -39 -122 11 -56 46 -134 68 -248 68 -97 1 -109 -1
-163 -29 -116 -58 -187 -173 -187 -300 0 -91 6 -101 37 -64 70 83 193 79 259
-7 l29 -37 3 -806 c2 -443 0 -821 -3 -839 -7 -40 -59 -101 -102 -118 -69 -29
-138 -12 -186 45 -24 29 -25 30 -31 8 -12 -47 -5 -138 15 -191 26 -72 96 -148
165 -182 125 -61 319 -35 437 58 l40 32 36 -22 c105 -66 195 -91 351 -99 188
-9 340 24 437 98 l52 39 45 -34 c57 -43 138 -74 246 -93 105 -19 396 -12 510
12 251 52 535 48 699 -9 l39 -14 12 76 c7 42 29 135 50 207 79 266 86 366 35
470 -31 64 -79 109 -155 144 -49 23 -67 26 -165 26 -88 0 -117 -4 -145 -19
-80 -42 -95 -77 -65 -149 18 -43 19 -111 4 -171 -9 -38 -16 -46 -57 -64 -90
-41 -171 -56 -297 -57 -130 0 -188 14 -252 61 -68 51 -81 170 -30 270 76 150
205 244 594 434 112 54 235 120 275 146 109 70 190 159 243 268 123 251 78
523 -120 721 -180 181 -445 264 -738 234z"/>
<path d="M439 769 c-25 -9 -49 -45 -49 -74 0 -18 5 -19 30 -3 37 24 55 0 58
-78 l3 -70 -33 -9 c-36 -11 -65 -52 -55 -80 6 -14 10 -15 22 -5 7 6 24 10 37
8 22 -3 23 -7 23 -92 0 -74 -3 -91 -17 -100 -13 -8 -23 -8 -38 2 -27 17 -30
16 -30 -12 0 -55 104 -88 158 -51 19 14 24 14 51 0 58 -29 121 -14 141 34 14
34 7 52 -12 33 -16 -16 -34 -15 -52 4 -12 11 -16 35 -16 84 0 75 14 100 54
100 44 0 54 -19 60 -115 7 -107 22 -134 87 -153 84 -24 169 12 169 73 0 25 -1
25 -25 9 -40 -26 -52 -7 -57 96 -3 70 -8 94 -24 111 -27 30 -68 49 -106 49
l-33 0 83 81 c77 77 84 81 116 76 41 -7 53 11 33 51 -15 34 -75 43 -101 16
-16 -15 -18 -15 -35 0 -39 35 -121 6 -121 -43 0 -14 5 -18 20 -14 38 10 21
-28 -40 -88 -33 -32 -65 -59 -70 -59 -6 0 -10 29 -10 64 0 73 17 99 50 78 16
-10 20 -8 25 9 9 27 -20 69 -48 70 -49 4 -71 -1 -91 -20 -21 -19 -21 -19 -49
5 -29 25 -64 29 -108 13z"/>
<path d="M1535 772 c-32 -6 -55 -33 -55 -63 0 -27 2 -28 24 -17 14 6 31 8 40
5 19 -8 28 -71 24 -172 l-3 -80 -74 145 c-40 80 -80 153 -89 163 -20 23 -54
22 -81 -3 -23 -19 -23 -19 -44 0 -31 30 -101 27 -132 -5 -38 -37 -31 -93 7
-58 34 31 53 6 56 -75 l3 -70 -36 -12 c-39 -13 -55 -35 -55 -76 0 -26 1 -26
19 -10 11 10 30 16 43 14 22 -3 23 -7 26 -91 3 -85 2 -87 -22 -99 -19 -8 -29
-8 -40 1 -12 10 -16 8 -21 -8 -8 -27 11 -60 42 -72 29 -11 93 5 93 23 0 6 8 4
18 -5 39 -36 132 -9 132 37 0 31 -12 47 -26 35 -7 -6 -23 -9 -36 -7 -30 4 -40
53 -36 178 l3 95 59 -110 c32 -60 70 -132 84 -160 14 -27 33 -58 41 -67 17
-22 59 -23 87 -4 17 12 22 12 39 0 30 -22 82 -17 110 11 25 24 33 59 16 70 -5
3 -12 1 -16 -5 -10 -16 -52 -12 -59 6 -3 9 -6 100 -6 203 0 196 3 211 45 211
12 0 26 -5 33 -12 9 -9 12 -4 12 24 0 62 -62 88 -113 48 -21 -16 -27 -17 -36
-6 -13 16 -47 24 -76 18z"/>
<path d="M2057 765 c-84 -23 -151 -90 -172 -171 -8 -31 -20 -49 -45 -66 -25
-17 -36 -32 -38 -53 -3 -28 -1 -30 30 -30 32 0 33 -1 51 -70 10 -38 30 -85 44
-103 61 -81 231 -112 336 -62 96 45 148 142 150 279 3 124 -45 216 -136 263
-50 25 -152 31 -220 13z m145 -105 c9 -19 18 -53 20 -74 3 -37 1 -40 -29 -48
-36 -9 -63 -41 -63 -75 0 -25 10 -29 27 -12 6 6 21 9 34 7 22 -3 24 -7 23 -66
-1 -83 -24 -117 -80 -117 -32 0 -41 4 -52 27 -29 62 -37 210 -16 320 9 44 49
80 87 76 25 -2 35 -10 49 -38z"/>
<path d="M3266 764 c-51 -18 -75 -40 -96 -88 -17 -36 -18 -74 -5 -116 4 -13
-2 -21 -25 -28 -39 -14 -58 -53 -41 -88 l12 -27 20 22 c21 23 26 24 79 21 43
-2 147 -56 167 -86 34 -53 -10 -115 -71 -100 -32 8 -57 59 -54 108 3 29 0 33
-23 36 -14 2 -37 -6 -52 -18 -31 -25 -35 -71 -13 -153 13 -49 14 -51 42 -40
10 3 43 1 74 -5 87 -18 175 -15 219 8 75 38 111 107 97 185 -10 52 -50 91
-134 131 -99 47 -112 59 -112 104 0 65 66 94 111 49 18 -18 20 -30 17 -69 -4
-42 -2 -49 15 -54 11 -3 35 1 52 8 40 17 46 45 32 136 l-10 67 -27 -10 c-20
-8 -44 -6 -93 6 -79 20 -129 21 -181 1z"/>
<path d="M2487 694 c-5 -53 -3 -84 6 -102 13 -27 54 -44 87 -35 17 4 19 11 14
48 -7 47 6 80 35 88 33 8 43 -8 49 -82 5 -70 4 -71 -20 -71 -41 0 -78 -36 -78
-76 0 -32 12 -45 24 -25 9 14 54 19 65 8 12 -12 15 -135 5 -161 -7 -19 -55
-21 -72 -4 -9 9 -12 5 -12 -20 0 -48 30 -72 89 -72 33 0 56 6 72 19 22 17 26
18 41 4 23 -21 92 -28 127 -13 24 10 51 50 51 77 0 4 -26 -3 -57 -14 -6 -3
-21 5 -32 16 -20 20 -21 32 -21 204 0 171 1 185 20 202 17 15 24 16 46 6 25
-11 26 -15 20 -65 -6 -58 0 -66 48 -66 51 0 69 56 53 160 l-8 45 -110 3 c-105
3 -110 2 -131 -21 l-21 -23 -24 24 c-24 23 -29 24 -96 17 -94 -10 -129 -10
-148 -1 -14 6 -17 -4 -22 -70z"/>
</g>
</svg>
