<svg xmlns="http://www.w3.org/2000/svg" id="Layer_1" height="40" viewBox="0 0 174 66.2">
  <style>
    .st1{fill:#005a78}.st2{fill:#fff}
  </style>
  <path fill="#fff" stroke="#005a78" stroke-width=".985" d="M113.2 65.4H10.8c-5.4 0-9.8-4.2-9.8-9.3V10.2C1 5 5.4.9 10.8.9h102.4"/>
  <path d="M59.7 65.9h103.9c5.5 0 10-4.2 10-9.4V9.8c0-5.2-4.5-9.4-10-9.4H59.7M41.3 40.1H20l-.8 2.5h5.7l1.1 3.6h9.3l1.1-3.6H42zM23.5 25.8c-.8 1.1-1.1 2.4-.9 3.7.2 1.3.9 2.5 2 3.3l5.1 3.7c.3.2.5.5.5.8.1.3 0 .7-.2.9l.8.6 2.7-3.7c.6-.9 1-1.9 1-2.9 0-.3 0-.5-.1-.8-.2-1.3-.9-2.5-2-3.3l-5.1-3.7c-.3-.2-.5-.5-.5-.8v-.2c0-.3.1-.5.2-.7l-.8-.6c-.1 0-2.7 3.7-2.7 3.7M26.5 10.9c-.9 1.3-1.4 2.7-1.4 4.3 0 .4 0 .8.1 1.2.3 1.9 1.3 3.6 2.9 4.8l6.4 4.6c.8.6 1.4 1.5 1.6 2.6v.6c0 .8-.3 1.6-.7 2.3l.6.4 5-7c1.1-1.6 1.6-3.5 1.3-5.4-.3-1.9-1.3-3.6-2.9-4.8l-7.7-5.6c-.5-.4-.8-.9-.9-1.5-.1-.6 0-1.2.4-1.7l-.6-.4-4.1 5.6zM13.4 48.3h5.8c1.4 0 2.6.4 3.3 1.1.6.6.9 1.3.9 2.1 0 1.4-.8 2.2-1.7 2.7 1.5.6 2.4 1.4 2.4 3.1 0 2.3-1.9 3.4-4.7 3.4h-6V48.3zm5.3 5.1c1.2 0 2-.4 2-1.3 0-.8-.6-1.3-1.8-1.3h-2.7v2.7h2.5zm.7 5c1.2 0 2-.4 2-1.4 0-.8-.6-1.4-2-1.4h-3.2v2.8h3.2zM25.3 48.3h5.8c1.4 0 2.6.4 3.3 1.1.6.6.9 1.3.9 2.1 0 1.4-.8 2.2-1.7 2.7 1.5.6 2.4 1.4 2.4 3.1 0 2.3-1.9 3.4-4.7 3.4h-6V48.3zm5.3 5.1c1.2 0 2-.4 2-1.3 0-.8-.6-1.3-1.8-1.3H28v2.7h2.6zm.7 5c1.2 0 2-.4 2-1.4 0-.8-.6-1.4-2-1.4H28v2.8h3.3zM37.2 48.3H43c1.4 0 2.6.4 3.3 1.1.6.6.9 1.3.9 2.1 0 1.4-.8 2.2-1.7 2.7 1.5.6 2.4 1.4 2.4 3.1 0 2.3-1.9 3.4-4.7 3.4h-6V48.3zm5.2 5.1c1.2 0 2-.4 2-1.3 0-.8-.6-1.3-1.8-1.3h-2.7v2.7h2.5zm.8 5c1.2 0 2-.4 2-1.4 0-.8-.6-1.4-2-1.4H40v2.8h3.2z" class="st1"/>
  <g>
    <path d="M74.2 20.3h2.2l4.7 11h-2.5l-1-2.5H73l-1 2.5h-2.5l4.7-11zm2.5 6.5l-1.5-3.5-1.5 3.5h3zM80.7 25.9c0-3.1 2.3-5.7 5.7-5.7 2.1 0 3.3.7 4.3 1.7l-1.5 1.8c-.8-.8-1.7-1.2-2.8-1.2-1.8 0-3.2 1.5-3.2 3.4s1.3 3.4 3.2 3.4c1.2 0 2-.5 2.9-1.3l1.5 1.5c-1.1 1.2-2.4 2-4.5 2-3.2 0-5.6-2.5-5.6-5.6zM91 25.9c0-3.1 2.3-5.7 5.7-5.7 2.1 0 3.3.7 4.3 1.7l-1.5 1.8c-.8-.8-1.7-1.2-2.8-1.2-1.8 0-3.2 1.5-3.2 3.4s1.3 3.4 3.2 3.4c1.2 0 2-.5 2.9-1.3l1.5 1.5c-1.1 1.2-2.4 2-4.5 2-3.2 0-5.6-2.5-5.6-5.6zM102.1 20.4h5c1.4 0 2.5.4 3.2 1.1.6.6.9 1.5.9 2.5 0 1.8-1 2.9-2.3 3.4l2.7 3.9h-2.8l-2.3-3.5h-1.9v3.5h-2.4V20.4zm4.8 5.3c1.2 0 1.8-.6 1.8-1.5 0-1-.7-1.6-1.9-1.6h-2.4v3.1h2.5zM112.5 20.4h8.2v2.1h-5.9v2.2h5.2v2.1h-5.2v2.3h5.9v2.1h-8.3V20.4zM122 20.4h4.3c3.4 0 5.8 2.4 5.8 5.4 0 3.1-2.4 5.5-5.8 5.5H122V20.4zm4.3 8.8c2 0 3.3-1.3 3.3-3.3 0-1.9-1.3-3.3-3.3-3.3h-1.9v6.6h1.9zM133.5 20.4h2.4v10.9h-2.4V20.4zM140.3 22.6H137v-2.2h9.1v2.2h-3.3v8.7h-2.4v-8.7zM146.9 20.4h8.2v2.1h-5.9v2.2h5.2v2.1h-5.2v2.3h5.9v2.1h-8.3V20.4zM156.5 20.4h4.3c3.4 0 5.8 2.4 5.8 5.4 0 3.1-2.4 5.5-5.8 5.5h-4.3V20.4zm4.3 8.8c2 0 3.3-1.3 3.3-3.3 0-1.9-1.3-3.3-3.3-3.3h-1.9v6.6h1.9zM70.4 38.1h5.1c1.2 0 2.2.3 2.9 1 .5.5.7 1.1.7 1.9 0 1.2-.7 1.9-1.4 2.4 1.3.5 2 1.2 2 2.7 0 2-1.6 3-4.1 3h-5.2v-11zm4.6 4.4c1.1 0 1.7-.3 1.7-1.2 0-.7-.6-1.1-1.6-1.1h-2.4v2.3H75zm.6 4.4c1.1 0 1.7-.4 1.7-1.2 0-.7-.5-1.2-1.8-1.2h-2.8v2.4h2.9zM80.6 44.3v-6.2H83v6.2c0 1.8.9 2.7 2.4 2.7s2.4-.9 2.4-2.6v-6.3h2.4v6.2c0 3.3-1.9 4.9-4.8 4.9-3 0-4.8-1.7-4.8-4.9zM90.9 47.4l1.4-1.7c1 .8 2 1.3 3.3 1.3 1 0 1.6-.4 1.6-1s-.4-.9-2.2-1.4c-2.2-.6-3.6-1.2-3.6-3.3 0-2 1.6-3.3 3.8-3.3 1.6 0 3 .5 4.1 1.4L98 41.1c-1-.7-1.9-1.1-2.8-1.1s-1.4.4-1.4 1c0 .7.5 1 2.4 1.4 2.2.6 3.5 1.4 3.5 3.3 0 2.2-1.7 3.4-4 3.4-1.8.1-3.4-.5-4.8-1.7zM100.9 38.1h2.4V49h-2.4V38.1zM105.1 38.1h2.2l5.1 6.7v-6.7h2.4V49h-2l-5.3-6.9V49h-2.4V38.1zM116.6 38.1h8.2v2.1H119v2.2h5.2v2.1H119v2.3h5.9V49h-8.3V38.1zM125.4 47.4l1.4-1.7c1 .8 2 1.3 3.3 1.3 1 0 1.6-.4 1.6-1s-.4-.9-2.2-1.4c-2.2-.6-3.6-1.2-3.6-3.3 0-2 1.6-3.3 3.8-3.3 1.6 0 3 .5 4.1 1.4l-1.2 1.8c-1-.7-1.9-1.1-2.8-1.1s-1.4.4-1.4 1c0 .7.5 1 2.4 1.4 2.2.6 3.5 1.4 3.5 3.3 0 2.2-1.7 3.4-4 3.4-1.9 0-3.6-.6-4.9-1.8zM134.3 47.4l1.4-1.7c1 .8 2 1.3 3.3 1.3 1 0 1.6-.4 1.6-1s-.4-.9-2.2-1.4c-2.2-.6-3.6-1.2-3.6-3.3 0-2 1.6-3.3 3.8-3.3 1.6 0 3 .5 4.1 1.4l-1.2 1.8c-1-.7-1.9-1.1-2.8-1.1s-1.4.4-1.4 1c0 .7.5 1 2.4 1.4 2.2.6 3.5 1.4 3.5 3.3 0 2.2-1.7 3.4-4 3.4-1.9 0-3.6-.6-4.9-1.8z" class="st2"/>
  </g>
</svg>
