<?xml version="1.0" encoding="utf-8"?>
<!-- Generator: Adobe Illustrator 21.1.0, SVG Export Plug-In . SVG Version: 6.00 Build 0)  -->
<svg version="1.1" id="Слой_1" xmlns="http://www.w3.org/2000/svg" xmlns:xlink="http://www.w3.org/1999/xlink" x="0px" y="0px"
	 viewBox="0 0 105 40" style="enable-background:new 0 0 105 40;" xml:space="preserve">
<style type="text/css">
	.st0{fill:#FFFFFF;}
	.st1{fill:#004D99;}
	.st2{fill:#F8AF00;}
</style>
<path class="st0" d="M99,40H6c-3.3,0-6-2.7-6-6V6c0-3.3,2.7-6,6-6h93c3.3,0,6,2.7,6,6v28C105,37.3,102.3,40,99,40z"/>
<g>
	<g>
		<g>
			<g>
				<path class="st1" d="M19.97338,24.93524h-0.59433v0.45849c0,1.57934,0.67928,2.41145,1.98695,2.41145
					c0.73025,0,1.2737-0.16973,2.20766-0.67928l0.45856,0.8321c-1.01899,0.61149-1.93598,0.86609-3.09081,0.86609
					c-0.95104,0-1.68129-0.25459-2.15677-0.73016c-0.56043-0.56043-0.8491-1.40961-0.8491-2.41145
					c0-1.46049,0.61131-2.87011,1.56235-3.92301c0.96804-1.10395,2.27562-1.83411,3.63425-1.83411
					c1.23971,0,2.05483,0.76415,2.05483,1.90208C25.18699,23.64447,23.03022,24.93524,19.97338,24.93524z M22.74155,20.94427
					c-0.66228,0-1.34165,0.35671-1.96994,0.98494c-0.59442,0.57751-0.93406,1.15483-1.18883,2.08889l0.71336,0.01707
					c1.95296,0.05088,3.44736-0.90007,3.44736-2.0549C23.74349,21.36894,23.31898,20.94427,22.74155,20.94427z"/>
				<path class="st1" d="M32.52328,28.62039h-1.35855l0.40759-2.15686c-1.29068,1.74924-2.27569,2.36055-3.63425,2.36055
					c-1.20582,0-1.98695-0.71325-1.98695-1.83393c0-0.30584,0.01689-0.45867,0.16982-1.2737l1.03591-5.58739h1.34165
					l-0.96802,5.21377c-0.16982,0.90007-0.16982,1.00185-0.16982,1.29061c0,0.66237,0.40759,1.06997,1.08688,1.06997
					c0.76424,0,1.52836-0.49264,2.20774-1.25679c0.71327-0.8321,1.29068-1.97004,1.52839-3.26063l0.57742-3.05693h1.34165
					L32.52328,28.62039z"/>
				<path class="st1" d="M47.60376,23.52562l-0.95104,5.09477h-1.34165l0.90007-4.87396
					c0.16982-0.88318,0.22079-1.30768,0.22079-1.68129c0-0.6453-0.33964-0.98494-0.90007-0.98494
					c-1.47749,0-3.02285,1.93589-3.48143,4.31353l-0.61131,3.22666h-1.34165l0.86609-4.70424
					c0.27176-1.44343,0.25478-1.44343,0.25478-1.76616c0-0.69619-0.32264-1.0698-0.90007-1.0698
					c-0.78122,0-1.66429,0.56043-2.37756,1.59624c-0.57742,0.83228-0.88307,1.66438-1.13785,3.02294l-0.56043,2.921h-1.32458
					l1.56235-8.49132h1.37555l-0.37363,1.97004c1.01901-1.4774,2.13987-2.17375,3.43056-2.17375
					c0.66228,0,1.18874,0.27167,1.40953,0.73016c0.16982,0.35671,0.20379,0.64548,0.23768,1.52845
					c1.12086-1.59624,2.17377-2.25862,3.49842-2.25862c1.12086,0,1.76616,0.67928,1.76616,1.8681
					C47.82446,22.20106,47.79057,22.50671,47.60376,23.52562z"/>
				<path class="st1" d="M50.16778,28.62039h-1.35856l1.57935-8.49132h1.35865L50.16778,28.62039z M51.35659,18.37998
					c-0.42458,0-0.71325-0.32273-0.71325-0.78122c0-0.6284,0.47548-1.15485,1.05289-1.15485
					c0.4246,0,0.73034,0.32275,0.73034,0.76415C52.42657,17.85354,51.95092,18.37998,51.35659,18.37998z"/>
				<path class="st1" d="M60.45889,23.01608l-1.0698,5.60431h-1.35855l0.98492-5.21361
					c0.18664-1.00201,0.18664-1.00201,0.18664-1.30768c0-0.62838-0.42433-1.0189-1.0867-1.0189
					c-0.76414,0-1.54555,0.45847-2.20776,1.20572c-0.73016,0.8321-1.30766,2.02093-1.54536,3.27754l-0.57751,3.05693H52.4602
					l1.56228-8.49132h1.37563l-0.4245,2.15686c1.29059-1.71528,2.30967-2.36057,3.65133-2.36057
					c1.22264,0,2.00386,0.69636,2.00386,1.80014C60.6288,22.04822,60.64569,22.04822,60.45889,23.01608z"/>
				<path class="st1" d="M62.90432,28.62039h-1.35856l1.57935-8.49132h1.35872L62.90432,28.62039z M64.09314,18.37998
					c-0.42451,0-0.71325-0.32273-0.71325-0.78122c0-0.6284,0.47539-1.15485,1.05289-1.15485
					c0.42469,0,0.73034,0.32275,0.73034,0.76415C65.16312,17.85354,64.68737,18.37998,64.09314,18.37998z"/>
				<path class="st1" d="M72.05766,28.62039H70.716l0.32275-1.74926c-1.10378,1.39253-1.95298,1.95296-3.12472,1.95296
					c-1.54555,0-2.51357-1.25661-2.51357-3.26063c0-2.98879,2.20792-5.63811,4.68734-5.63811
					c0.90005,0,1.56244,0.39052,2.02091,1.18881l0.18665-0.9851h1.35873L72.05766,28.62039z M70.03672,20.94427
					c-1.83393,0-3.19267,2.00402-3.19267,4.65318c0,1.34165,0.50938,2.10596,1.44361,2.10596
					c0.90007,0,1.80014-0.66237,2.49632-1.78323c0.57751-0.91715,1.00201-2.34366,1.00201-3.37948
					C71.78599,21.58957,71.05582,20.94427,70.03672,20.94427z"/>
			</g>
			<g>
				<path class="st1" d="M31.76584,34.43685c-0.21773,0.24879-0.49318,0.38206-0.78641,0.38206
					c-0.2355,0-0.39986-0.07113-0.56422-0.23997l-0.23999,1.29746h-0.3554l0.61757-3.33229h0.351l-0.10221,0.52874
					c0.30214-0.41324,0.52874-0.58208,0.84416-0.58208c0.41324,0,0.66652,0.31992,0.66652,0.83967
					C32.19686,33.70809,32.01912,34.13911,31.76584,34.43685z M31.41045,32.79288c-0.21771,0-0.42653,0.15989-0.60428,0.45321
					c-0.16885,0.27995-0.25328,0.54195-0.34209,1.05747c0.1155,0.16429,0.28434,0.24879,0.47978,0.24879
					c0.4621,0,0.86194-0.56871,0.86194-1.21294C31.8058,32.99272,31.66364,32.79288,31.41045,32.79288z"/>
				<path class="st1" d="M33.45013,34.81891c-0.52425,0-0.88855-0.40882-0.88855-0.99532c0-0.73755,0.52427-1.33283,1.18179-1.33283
					c0.48878,0,0.83087,0.40424,0.83087,0.97295C34.57423,34.21465,34.07219,34.81891,33.45013,34.81891z M33.68561,32.76172
					c-0.40426,0-0.74644,0.48436-0.74644,1.06187c0,0.45761,0.19553,0.72436,0.52874,0.72436
					c0.15556,0,0.29325-0.06673,0.41323-0.18222c0.19104-0.19104,0.31543-0.51994,0.31543-0.89304
					C34.19657,32.99272,34.02773,32.76172,33.68561,32.76172z"/>
				<path class="st1" d="M36.92934,34.76556h-0.20882c-0.23549-1.27949-0.24437-1.33284-0.27106-1.82162
					c-0.12878,0.32873-0.18213,0.43983-0.40426,0.83969c-0.18662,0.33329-0.36438,0.65761-0.551,0.98193h-0.19993l-0.28876-2.22146
					l0.36429-0.03557c0.0178,0.18222,0.04886,0.47099,0.09332,0.87524c0.04446,0.42204,0.04886,0.52433,0.05335,0.88422
					c0.17773-0.43983,0.32431-0.702,0.9197-1.7239h0.25328c0.18214,1.14621,0.19991,1.27948,0.23988,1.7239
					c0.31543-0.702,0.37769-0.8087,0.90193-1.75947l0.30654,0.08434L36.92934,34.76556z"/>
				<path class="st1" d="M38.63142,33.80141h-0.15556v0.1199c0,0.41324,0.17773,0.63103,0.51984,0.63103
					c0.19102,0,0.33321-0.04453,0.57759-0.17783l0.11999,0.2178c-0.26666,0.15987-0.50656,0.2266-0.80868,0.2266
					c-0.24879,0-0.43983-0.06673-0.56422-0.19102c-0.14667-0.14667-0.22221-0.36887-0.22221-0.63103
					c0-0.38208,0.15996-0.75077,0.40875-1.02631c0.25328-0.28876,0.59539-0.47978,0.95088-0.47978
					c0.32431,0,0.53753,0.2,0.53753,0.49756C39.99534,33.4637,39.43113,33.80141,38.63142,33.80141z M39.3556,32.75732
					c-0.17326,0-0.351,0.09332-0.51535,0.25777c-0.15556,0.15107-0.24439,0.30212-0.31103,0.54633l0.18662,0.00458
					c0.51087,0.01322,0.90193-0.23557,0.90193-0.53771C39.61777,32.86842,39.50667,32.75732,39.3556,32.75732z"/>
				<path class="st1" d="M41.54634,32.89957c-0.09779-0.03555-0.14666-0.04453-0.21771-0.04453
					c-0.16445,0-0.29772,0.08891-0.40875,0.26217c-0.0933,0.14665-0.16445,0.35107-0.2177,0.61764l-0.20002,1.03072h-0.34649
					l0.40875-2.22146h0.35987l-0.07552,0.38206l0.16885-0.20442c0.14218-0.16885,0.2399-0.231,0.38208-0.231
					c0.11999,0,0.21331,0.03995,0.33321,0.15987L41.54634,32.89957z"/>
				<path class="st1" d="M42.19526,33.80141H42.0397v0.1199c0,0.41324,0.17773,0.63103,0.51985,0.63103
					c0.19102,0,0.3332-0.04453,0.57759-0.17783l0.11998,0.2178c-0.26665,0.15987-0.50656,0.2266-0.80868,0.2266
					c-0.24879,0-0.43983-0.06673-0.56422-0.19102c-0.14667-0.14667-0.22221-0.36887-0.22221-0.63103
					c0-0.38208,0.15996-0.75077,0.40874-1.02631c0.25328-0.28876,0.59539-0.47978,0.95088-0.47978
					c0.32431,0,0.53753,0.2,0.53753,0.49756C43.55917,33.4637,42.99496,33.80141,42.19526,33.80141z M42.91943,32.75732
					c-0.17326,0-0.351,0.09332-0.51536,0.25777c-0.15556,0.15107-0.24439,0.30212-0.31103,0.54633l0.18663,0.00458
					c0.51086,0.01322,0.90193-0.23557,0.90193-0.53771C43.1816,32.86842,43.0705,32.75732,42.91943,32.75732z"/>
				<path class="st1" d="M45.50554,34.76556h-0.351l0.08443-0.45759c-0.28885,0.36869-0.51096,0.51094-0.8175,0.51094
					c-0.40435,0-0.65761-0.3289-0.65761-0.85305c0-0.78193,0.57759-1.47511,1.22631-1.47511
					c0.23541,0,0.40875,0.10212,0.52864,0.31094l0.23999-1.29728h0.35989L45.50554,34.76556z M44.9768,32.75732
					c-0.47978,0-0.83527,0.52433-0.83527,1.21733c0,0.35109,0.13776,0.55093,0.37767,0.55093
					c0.2355,0,0.47099-0.17324,0.65314-0.46641c0.15107-0.23999,0.26208-0.61325,0.26208-0.88422
					C45.43441,32.92617,45.24337,32.75732,44.9768,32.75732z"/>
				<path class="st1" d="M49.40707,34.43685c-0.21772,0.24879-0.49318,0.38206-0.78643,0.38206
					c-0.23549,0-0.39544-0.07113-0.56422-0.23997l-0.04004,0.18663h-0.34651l0.60428-3.26115h0.35098l-0.28883,1.56843
					c0.29774-0.42222,0.52433-0.58208,0.84416-0.58208c0.40875,0,0.65763,0.31992,0.65763,0.83967
					C49.83809,33.70809,49.66924,34.13911,49.40707,34.43685z M49.05608,32.79288c-0.21771,0-0.42653,0.15989-0.60428,0.45321
					c-0.16876,0.27995-0.25768,0.53755-0.34651,1.05747c0.11992,0.15989,0.28876,0.24879,0.48429,0.24879
					c0.4621,0,0.86194-0.56871,0.86194-1.21294C49.45152,32.99272,49.30487,32.79288,49.05608,32.79288z"/>
				<path class="st1" d="M50.12667,35.8764l-0.26208-0.16885l0.78192-1.17299l-0.40874-1.97269l0.38206-0.06233
					c0.08003,0.47557,0.16444,0.94637,0.24879,1.42176c0.01778,0.09332,0.03117,0.19122,0.04895,0.29334
					c0.31983-0.53315,0.67971-1.13741,1.02183-1.7151l0.29323,0.12888L50.12667,35.8764z"/>
				<path class="st1" d="M53.4506,35.8764l-0.26217-0.16885l0.78193-1.17299l-0.40884-1.97269l0.38208-0.06233
					c0.0801,0.47557,0.16445,0.94637,0.24895,1.42176c0.01762,0.09332,0.03099,0.19122,0.04895,0.29334
					c0.31976-0.53315,0.67964-1.13741,1.02174-1.7151l0.29316,0.12888L53.4506,35.8764z"/>
				<path class="st1" d="M56.42318,34.81891c-0.52415,0-0.88862-0.40882-0.88862-0.99532c0-0.73755,0.52433-1.33283,1.18178-1.33283
					c0.48876,0,0.83105,0.40424,0.83105,0.97295C57.5474,34.21465,57.04524,34.81891,56.42318,34.81891z M56.6586,32.76172
					c-0.40426,0-0.74637,0.48436-0.74637,1.06187c0,0.45761,0.19562,0.72436,0.52874,0.72436
					c0.15565,0,0.29334-0.06673,0.41323-0.18222c0.19104-0.19104,0.31536-0.51994,0.31536-0.89304
					C57.16956,32.99272,57.00087,32.76172,56.6586,32.76172z"/>
				<path class="st1" d="M59.68471,34.76556h-0.35549l0.1067-0.56429c-0.33771,0.45759-0.59548,0.61764-0.95079,0.61764
					c-0.31552,0-0.51976-0.18662-0.51976-0.47997c0-0.07993,0.0044-0.1199,0.04437-0.33311l0.27097-1.46173h0.35091
					l-0.25319,1.36401c-0.04437,0.23539-0.04437,0.26217-0.04437,0.3377c0,0.17326,0.1067,0.27978,0.28436,0.27978
					c0.19984,0,0.39986-0.12871,0.57769-0.32873c0.18664-0.21762,0.33753-0.51536,0.39968-0.85305l0.15107-0.7997h0.35107
					L59.68471,34.76556z"/>
				<path class="st1" d="M61.81321,32.89957c-0.09772-0.03555-0.14649-0.04453-0.21762-0.04453
					c-0.16445,0-0.29774,0.08891-0.40884,0.26217c-0.09332,0.14665-0.16445,0.35107-0.21762,0.61764l-0.20002,1.03072h-0.34651
					l0.40884-2.22146h0.35989l-0.07571,0.38206l0.16903-0.20442c0.14209-0.16885,0.23981-0.231,0.38206-0.231
					c0.11991,0,0.21321,0.03995,0.33313,0.15987L61.81321,32.89957z"/>
				<path class="st1" d="M63.62639,33.80141h-0.15565v0.1199c0,0.41324,0.17783,0.63103,0.51994,0.63103
					c0.19102,0,0.33329-0.04453,0.57769-0.17783l0.1199,0.2178c-0.26656,0.15987-0.50656,0.2266-0.80868,0.2266
					c-0.24879,0-0.43983-0.06673-0.56413-0.19102c-0.14685-0.14667-0.22221-0.36887-0.22221-0.63103
					c0-0.38208,0.15987-0.75077,0.40866-1.02631c0.25337-0.28876,0.5953-0.47978,0.95095-0.47978
					c0.32433,0,0.53755,0.2,0.53755,0.49756C64.99039,33.4637,64.42609,33.80141,63.62639,33.80141z M64.35056,32.75732
					c-0.17326,0-0.35091,0.09332-0.51536,0.25777c-0.15565,0.15107-0.24439,0.30212-0.31094,0.54633l0.18644,0.00458
					c0.51096,0.01322,0.90202-0.23557,0.90202-0.53771C64.61273,32.86842,64.50163,32.75732,64.35056,32.75732z"/>
				<path class="st1" d="M66.27906,33.5838l0.28874,0.53313c0.10229,0.18662,0.16902,0.32871,0.27554,0.55973l-0.34667,0.12888
					c-0.23981-0.51536-0.31976-0.70198-0.44405-1.01292c-0.14227,0.19984-0.58666,0.77753-0.79549,1.01292l-0.25777-0.19102
					l0.94197-1.07966c-0.13769-0.25319-0.30214-0.59988-0.44423-0.90202l0.35549-0.13327
					c0.15546,0.34667,0.24439,0.56871,0.33771,0.83545c0.1155-0.14227,0.231-0.28894,0.34191-0.42661
					c0.07114-0.08892,0.16005-0.19544,0.34229-0.40884l0.25759,0.16005C66.95444,32.86842,66.5678,33.29486,66.27906,33.5838z"/>
				<path class="st1" d="M69.04723,34.43685c-0.21764,0.24879-0.493,0.38206-0.78634,0.38206
					c-0.23558,0-0.39984-0.07113-0.56413-0.23997L67.4566,35.8764H67.1013l0.61765-3.33229h0.35091l-0.1023,0.52874
					c0.30214-0.41324,0.52892-0.58208,0.84425-0.58208c0.41324,0,0.66643,0.31992,0.66643,0.83967
					C69.47824,33.70809,69.30058,34.13911,69.04723,34.43685z M68.69192,32.79288c-0.21764,0-0.42645,0.15989-0.60428,0.45321
					c-0.16885,0.27995-0.25319,0.54195-0.34211,1.05747c0.11552,0.16429,0.28436,0.24879,0.4798,0.24879
					c0.46201,0,0.86203-0.56871,0.86203-1.21294C69.08736,32.99272,68.94511,32.79288,68.69192,32.79288z"/>
				<path class="st1" d="M70.34521,33.80141h-0.15565v0.1199c0,0.41324,0.17783,0.63103,0.51976,0.63103
					c0.19122,0,0.33329-0.04453,0.57768-0.17783l0.11991,0.2178c-0.26659,0.15987-0.50638,0.2266-0.80852,0.2266
					c-0.24897,0-0.43983-0.06673-0.56431-0.19102c-0.14667-0.14667-0.22219-0.36887-0.22219-0.63103
					c0-0.38208,0.16004-0.75077,0.40865-1.02631c0.25337-0.28876,0.59547-0.47978,0.95095-0.47978
					c0.32432,0,0.53754,0.2,0.53754,0.49756C71.70904,33.4637,71.14491,33.80141,70.34521,33.80141z M71.06921,32.75732
					c-0.17325,0-0.35091,0.09332-0.51518,0.25777c-0.15565,0.15107-0.24438,0.30212-0.31112,0.54633l0.18665,0.00458
					c0.51078,0.01322,0.902-0.23557,0.902-0.53771C71.33155,32.86842,71.22028,32.75732,71.06921,32.75732z"/>
				<path class="st1" d="M73.28222,32.89957c-0.09772-0.03555-0.14667-0.04453-0.2178-0.04453
					c-0.16444,0-0.29755,0.08891-0.40865,0.26217c-0.09332,0.14665-0.16445,0.35107-0.2178,0.61764l-0.20002,1.03072h-0.3465
					l0.40882-2.22146h0.35989l-0.07552,0.38206l0.16885-0.20442c0.14227-0.16885,0.23981-0.231,0.38206-0.231
					c0.12009,0,0.21339,0.03995,0.33313,0.15987L73.28222,32.89957z"/>
				<path class="st1" d="M73.77892,34.76556h-0.35531l0.41324-2.22146h0.35549L73.77892,34.76556z M74.09003,32.0865
					c-0.1111,0-0.18646-0.08452-0.18646-0.20442c0-0.16445,0.12431-0.30214,0.27538-0.30214
					c0.11092,0,0.19102,0.08434,0.19102,0.20002C74.36998,31.94863,74.24551,32.0865,74.09003,32.0865z"/>
				<path class="st1" d="M75.05437,33.80141h-0.15565v0.1199c0,0.41324,0.17785,0.63103,0.51994,0.63103
					c0.19104,0,0.33331-0.04453,0.57768-0.17783l0.11991,0.2178c-0.26656,0.15987-0.50655,0.2266-0.80869,0.2266
					c-0.24879,0-0.43981-0.06673-0.56413-0.19102c-0.14684-0.14667-0.2222-0.36887-0.2222-0.63103
					c0-0.38208,0.15987-0.75077,0.40865-1.02631c0.25337-0.28876,0.59531-0.47978,0.95095-0.47978
					c0.32432,0,0.53755,0.2,0.53755,0.49756C76.41839,33.4637,75.85408,33.80141,75.05437,33.80141z M75.77854,32.75732
					c-0.17325,0-0.35091,0.09332-0.51536,0.25777c-0.15565,0.15107-0.24437,0.30212-0.31094,0.54633l0.18646,0.00458
					c0.51096,0.01322,0.902-0.23557,0.902-0.53771C76.04071,32.86842,75.92961,32.75732,75.77854,32.75732z"/>
				<path class="st1" d="M78.69337,33.29943l-0.27995,1.46613h-0.35531l0.25777-1.36401
					c0.04877-0.26217,0.04877-0.26217,0.04877-0.34209c0-0.16447-0.1111-0.26659-0.28436-0.26659
					c-0.2,0-0.40426,0.11992-0.57751,0.31551c-0.1912,0.21764-0.34227,0.52858-0.40443,0.85747l-0.15107,0.7997h-0.3465
					l0.40866-2.22146h0.35989l-0.11093,0.56429c0.33771-0.44879,0.60428-0.61763,0.95518-0.61763
					c0.31992,0,0.52415,0.18222,0.52415,0.47099C78.73775,33.04607,78.74232,33.04607,78.69337,33.29943z"/>
				<path class="st1" d="M80.78192,32.89957c-0.13311-0.0889-0.26199-0.13327-0.39546-0.13327
					c-0.48876,0-0.87965,0.47979-0.87965,1.07069c0,0.43981,0.19544,0.70638,0.52434,0.70638
					c0.16869,0,0.29316-0.04877,0.50638-0.18662l0.13348,0.23557c-0.28455,0.16885-0.47117,0.2266-0.71978,0.2266
					c-0.49776,0-0.82207-0.37327-0.82207-0.93299c0-0.73755,0.59106-1.39516,1.25731-1.39516
					c0.22221,0,0.42664,0.06673,0.57329,0.18222L80.78192,32.89957z"/>
				<path class="st1" d="M81.56437,33.80141h-0.15563v0.1199c0,0.41324,0.17783,0.63103,0.51975,0.63103
					c0.19121,0,0.3333-0.04453,0.57769-0.17783l0.1199,0.2178c-0.26657,0.15987-0.50638,0.2266-0.80852,0.2266
					c-0.24895,0-0.43981-0.06673-0.56429-0.19102c-0.14667-0.14667-0.22221-0.36887-0.22221-0.63103
					c0-0.38208,0.16005-0.75077,0.40866-1.02631c0.25336-0.28876,0.59547-0.47978,0.95097-0.47978
					c0.32432,0,0.53754,0.2,0.53754,0.49756C82.92822,33.4637,82.36408,33.80141,81.56437,33.80141z M82.28838,32.75732
					c-0.17326,0-0.35091,0.09332-0.51517,0.25777c-0.15565,0.15107-0.24438,0.30212-0.31112,0.54633l0.18663,0.00458
					c0.51077,0.01322,0.90202-0.23557,0.90202-0.53771C82.55073,32.86842,82.43945,32.75732,82.28838,32.75732z"/>
			</g>
		</g>
	</g>
	<g>
		<circle class="st2" cx="80.07535" cy="11.11338" r="6.98951"/>
		<path class="st0" d="M80.24384,10.67112c2.35951,0.35116,3.33477,0.68922,4.09998-0.134
			c1.0601-1.1412-0.51589-2.94706-0.51589-2.94706s-0.65673-0.92533-2.01917-1.38646
			c-0.89989-0.30408-1.85594-0.39872-2.85496-0.18594c-1.30786,0.27908-2.40354,1.16294-3.09091,2.27421
			c-0.08856,0.1435-0.16973,0.29201-0.24632,0.44289h-0.00089c0,0-0.31375,0.59873-0.41217,1.07034
			c0,0,0.51958,0.04172,0.83968-0.58104c0.05246-0.10151,0.25037-0.5327,0.41076-0.78773
			c1.04709-1.66184,2.91115-2.38012,4.32764-1.88791c1.64361,0.57002,2.16108,2.86235,0.39474,3.52325
			c-1.55224,0.5805-3.27261-0.77807-4.86269-0.22741c-1.30996,0.45391-1.89451,2.17262-0.5983,4.1631
			c0.09192,0.14067,0.18982,0.27573,0.29141,0.40592c1.22843,1.46728,3.23351,2.2161,5.24599,1.76722
			c1.20609-0.26824,2.14031-0.87772,2.85727-1.78588c0.12008-0.15248,0.17465-0.41306-0.14227-0.71994
			c-0.7233,1.19516-1.80647,1.87726-3.24673,1.98509c-2.58858,0.19156-3.52633-1.68181-3.65362-2.76157
			C76.93568,11.78081,77.84702,10.31387,80.24384,10.67112z"/>
	</g>
</g>
</svg>
