<svg xmlns="http://www.w3.org/2000/svg" id="Capa_1" viewBox="0 0 97.7 97.7">
  <style>
    .st1{fill:#fff}
  </style>
  <path fill="#786e63" d="M48.9 0c-19.8 0-36 16.1-36 36 0 5.2 1.1 10.1 3.1 14.7C25 70.3 42.3 91.1 47.3 97c.4.4.9.7 1.5.7s1.1-.3 1.5-.7c5.1-5.9 22.3-26.7 31.3-46.4 2.1-4.6 3.1-9.5 3.1-14.7C84.8 16.1 68.7 0 48.9 0z"/>
  <path d="M72.5 43.8c.5 0 1.7-.1 2.9-.8 1.1-.7 1.5-2.1 1.5-2.5v-.1s-.6-.1-1.4.1c-.5.1-1.1.3-1.6.7-.4.3-.8.8-1.1 1.3.2-.7.3-1.3.4-2 .1-.4.1-.8.1-1.2.5-.1 1.5-.4 2.4-1.2 1-.9 1-2.7 1-2.7s-1.6 0-2.6 1.1c-.3.3-.5.9-.7 1.4v-2.8-.5c.4-.1 1.4-.5 2.1-1.5.8-1 .5-2.7.5-2.7s-1.5.2-2.3 1.4c-.2.4-.4 1-.5 1.6-.1-1.2-.4-2.3-.6-3.5.1 0 .2-.1.3-.2.4-.3 1-.7 1.5-1.6.6-1.1.1-2.8.1-2.8s-1.5.5-2 1.8c-.2.5-.2 1.2-.2 1.8-.3-1.2-.7-2.4-1.2-3.6.2-.1.6-.4.9-.9.2-.3.4-.7.6-1.1.4-1.2-.3-2.8-.3-2.8s-1.4.7-1.7 2.1c-.1.5 0 1.2.1 1.8-.5-1.2-1.1-2.3-1.7-3.3.3-.3.8-.9 1-1.9 0-.1 0-.2.1-.3.2-1.3-.7-2.7-.7-2.7s-1.2 1-1.3 2.4v.6c.1.3.2.7.3 1-.2-.4-.5-.7-.7-1-.4-.6-.9-1.2-1.4-1.7.2-.3.7-1.1.8-2.4 0-.4-.1-.9-.3-1.2-.3-.7-.7-1.1-.7-1.1s-.4.5-.7 1.1c-.2.4-.3.9-.3 1.4 0 .5.3 1.2.6 1.7-.9-.9-1.7-1.7-2.5-2.3.1-.1.2-.4.3-.7.1-.4.2-1 .2-1.6-.1-1.1-1.1-1.9-1.1-1.9s-.8 1.3-.6 2.4c.1.4.3.8.5 1.1.1.2.2.3.3.4-.2-.1-.4-.3-.6-.4-.8-.6-1.5-1-2.1-1.3.1-.3.4-1.2.2-2.3-.2-1-1.3-1.6-1.3-1.6s-.6 1.3-.3 2.4c.2.5.7 1 1 1.3-.5-.3-1-.5-1.4-.6-.1-.2-.6-1-1.3-1.1-.6-.1-1.7.2-1.6.2 0 0 .3.8 1.2 1.2.7.3 1.6-.1 1.7-.2.5.2 1.1.5 1.9.9-.4-.1-1.4-.3-2-.1-.6.2-1.2.7-1.6 1.2-.3.3-.5.6-.5.6s1.1.5 2.2 0c.4-.2.7-.4 1-.6.6-.5.9-.9 1-1 .5.3 1 .6 1.5 1 .4.3.8.6 1.3 1-.5-.2-1.3-.5-1.9-.5-1.2.1-2.4 1.4-2.4 1.4s1.1.8 2.3.5c1.3-.3 2-1 2.2-1.2.8.7 1.6 1.5 2.5 2.4l.2.2c-.5-.3-1.3-.9-1.9-.9-1.3-.2-2.7.9-2.7.9s1.1 1.1 2.3 1.1c1.4-.1 2.3-.6 2.5-.8.3.3.6.7.9 1.1.5.7 1 1.4 1.4 2.2-.4-.4-1.2-1.2-1.8-1.4-1.3-.5-2.9.4-2.9.4s.9 1.4 2.3 1.6c1.4.2 2.4-.1 2.7-.2.5.8.9 1.7 1.3 2.7.1.3.2.6.4.9-.2-.3-.4-.6-.7-.9-.3-.3-.5-.5-.8-.7-1.3-.7-3.1-.2-3.1-.2s.2.4.5.9c.4.5.9 1 1.6 1.3 1.3.5 2.3.4 2.7.3.4 1.2.8 2.4 1.1 3.6-.3-.6-.7-1.3-1.2-1.6-1.2-1-3.1-.8-3.1-.8s.5 1.8 1.8 2.5c1.2.7 2.3.8 2.7.8.3 1.2.4 2.5.5 3.7-.2-.6-.6-1.4-1-1.8-1.1-1.2-3.1-1.3-3.1-1.3s.2 1.9 1.4 2.8c.8.6 1.6.9 2.2 1.1.2.1.4.1.5.1.1 1.2 0 2.4-.1 3.7-.1-.6-.3-1.5-.7-2-.8-1.2-2.7-1.7-3-1.8 0 .1-.1 2 1 3.1 1 1.1 2.1 1.5 2.6 1.6 0 .2-.1.4-.1.6-.2.9-.4 1.8-.7 2.7 0-.6-.1-1.4-.4-1.9-.1-.3-.3-.5-.5-.8-.9-1-2.3-1.5-2.3-1.5s-.2.7-.1 1.5c0 .6.2 1.2.6 1.7.9 1.2 1.9 1.8 2.4 2l-.6 1.5c-.2.5-.5 1.1-.8 1.6.1-.5.2-1.1.1-1.6 0-.2 0-.3-.1-.4-.4-1.6-2.5-2.7-2.5-2.7s-.9 1.7-.3 3.1c0 0 0 .1.1.1.6 1.3 1.6 2.1 2.1 2.4-.6.9-1.3 1.8-2.1 2.6.2-.6.4-1.2.4-1.8-.1-1.6-2-3.1-2-3.1s-1.3 1.6-.9 3.2c.2.8.6 1.4.9 1.9.2.3.5.6.7.8-.8.7-1.7 1.4-2.5 2 .3-.5.7-1 .7-1.5.1-.4 0-.8-.1-1.3-.4-1.1-1.2-2.1-1.2-2.1s-1.1.9-1.5 2.1c-.1.3-.1.5-.1.8.1 1.3.6 2.3 1 2.8-.9.6-1.9 1-2.9 1.5.4-.4.9-.9 1.1-1.3.6-1.5-.6-3.4-.6-3.4s-2 1-2.3 2.5c-.2 1 0 1.9.2 2.4 0 .1.1.3.1.4-1.1.4-2.2.7-3.2 1h-.2c.5-.3 1-.7 1.3-1 .1-.1.1-.2.2-.3.5-1.2 0-2.7 0-2.7s-1.9.5-2.5 1.8c.3.3.3.6.2.9-.1.6-.1 1.1-.1 1.5v.2c-1.1.2-2.2.3-3.3.4h-.2c.5-.2 1.1-.5 1.5-.8.4-.4.6-.8.7-1.2.3-.9.2-1.7.2-1.7s-2 .2-2.8 1.3c-.1.1-.2.2-.2.4-.5.8-.7 1.6-.7 2.1h-.3c-.1-.5-.2-1.3-.7-2.1-.1-.1-.2-.2-.2-.4-.8-1.2-2.8-1.3-2.8-1.3s-.1.8.2 1.7c.1.4.4.9.7 1.2.3.3.9.6 1.5.8h-.2c-1-.1-2.1-.2-3.3-.4-.3-.1-.3-.1 0 0 .1-.3.1-.9 0-1.6-.1-.3-.1-.6-.3-.9-.4-.9-1.5-1.4-2.1-1.7-.2-.1-.4-.1-.4-.1v.1c-.1.3-.4 1.6 0 2.6.1.1.1.2.2.3.1.1.1.2.2.2.3.3.7.6 1.1.8-.1 0-.3-.1-.3-.1-.3-.1-.5-.1-.8-.2-.1 0-.3-.1-.4-.1-.6-.2-1.3-.4-1.9-.6 0-.1.1-.2.1-.4.2-.6.4-1.4.2-2.4-.3-1.5-2.2-2.5-2.3-2.5 0 0-1.2 2-.6 3.4.2.4.6.9 1.1 1.3-1-.4-1.9-.9-2.9-1.5.3-.5.9-1.4 1-2.8 0-.3 0-.6-.1-.8-.4-1.2-1.5-2.1-1.5-2.1s-.8 1-1.2 2.1c-.1.4-.2.8-.1 1.3s.4 1.1.7 1.5c-.4-.2-.7-.5-1-.8-.3-.3-.7-.5-1-.8-.2-.1-.3-.3-.5-.4l.5-.5c.1-.1.1-.2.2-.2.3-.4.6-1 .8-1.6 0-.1 0-.1.1-.2.1-.5.1-1-.1-1.5-.3-.9-.9-1.7-.9-1.7s-.1.1-.2.1c-.4.4-1.7 1.6-1.8 2.9 0 .5.2 1.2.4 1.8-.8-.8-1.4-1.7-2.1-2.6.5-.3 1.4-1.1 2.1-2.4 0 0 0-.1.1-.1.6-1.4-.3-3.1-.3-3.1s-2 1.1-2.5 2.7c0 .1-.1.3-.1.4 0 .5 0 1.1.1 1.6-.3-.5-.6-1-.8-1.6l-.6-1.5c.5-.2 1.5-.8 2.4-2 .4-.5.5-1.2.6-1.7 0-.8-.1-1.5-.1-1.5s-1.4.5-2.3 1.5c-.2.2-.4.5-.5.8-.3.5-.3 1.3-.4 1.9-.3-.9-.5-1.8-.7-2.7 0-.2-.1-.4-.1-.6.5-.1 1.6-.5 2.6-1.6 1.1-1.1 1-3 1-3.1-.3.1-2.1.6-3 1.8-.4.5-.6 1.3-.7 2-.1-1.2-.1-2.4-.1-3.7.1 0 .3-.1.5-.1.6-.1 1.3-.4 2.2-1.1 1.2-.9 1.4-2.8 1.4-2.8s-2 .1-3.1 1.3c-.4.4-.8 1.2-1 1.8.1-1.2.3-2.5.5-3.7.4 0 1.5-.1 2.7-.8 1.3-.7 1.8-2.5 1.8-2.5s-2-.2-3.1.8c-.5.4-.9 1.1-1.2 1.6.3-1.2.7-2.4 1.1-3.6.4.1 1.4.2 2.7-.3.7-.2 1.2-.8 1.6-1.3.4-.5.5-.9.5-.9s-1.8-.5-3.1.2c-.3.1-.5.4-.8.7-.3.3-.5.6-.7.9.1-.3.2-.6.4-.9.4-.9.8-1.8 1.3-2.7.3.1 1.3.5 2.7.2.1 0 .2 0 .2-.1.4-.1.7-.3 1-.5.6-.5 1-1.1 1-1.1s-.4-.2-1-.4c-.3-.1-.7-.1-1-.1-.3 0-.6 0-.9.1-.6.2-1.4 1-1.8 1.4.5-.8.9-1.5 1.4-2.2.3-.4.6-.8.9-1.1.1 0 .2.1.4.2s.6.3 1 .4c.3.1.7.1 1.1.2 1.3 0 2.4-1.1 2.3-1.1 0 0-1.4-1.1-2.7-.9-.2 0-.5.1-.8.2-.4.2-.7.4-1 .6l-.1.1c0-.1.1-.1.1-.2l.1-.1c.3-.4.6-.7 1-1 .5-.5 1-1 1.5-1.4.2.2 1 .9 2.2 1.2 1.2.3 2.3-.5 2.3-.5s-1.2-1.3-2.4-1.4c-.6-.1-1.4.3-1.9.5.4-.4.9-.7 1.2-1 .5-.4 1.1-.7 1.5-1 .1.1.4.5 1 1 .3.2.6.4 1 .6.8.4 1.7.2 2 .1.1 0 .2-.1.2-.1s-.1-.1-.2-.3l-.3-.3c-.4-.4-1-1-1.6-1.2-.6-.2-1.6 0-2 .1.8-.4 1.4-.7 1.9-1 .1.1 1 .5 1.7.2.1 0 .2-.1.3-.2.2-.1.3-.2.4-.3.4-.3.5-.7.5-.7s-.2-.1-.5-.2c-.1 0-.3-.1-.4-.1-.3 0-.5-.1-.7 0-.7.2-1.1.9-1.3 1.1-.4.1-.8.3-1.4.6.3-.3.9-.8 1-1.3.7-.6.1-2 .1-2s-1.1.6-1.3 1.6c-.2 1.1.1 2 .2 2.3-.6.3-1.3.8-2.1 1.3-.2.1-.4.3-.6.4.1-.1.2-.3.3-.4.2-.4.5-.8.5-1.1.2-1.2-.6-2.4-.6-2.4s-1 .8-1.1 1.9c0 .6.1 1.2.2 1.6.1.4.2.6.3.7-.5.4-1.1.9-1.7 1.5l-.8.8c.3-.5.6-1.2.6-1.7s-.1-1-.3-1.4c-.2-.5-.5-.8-.6-1 0-.1-.1-.1-.1-.1s-.4.5-.7 1.1c-.2.4-.3.8-.3 1.2.1 1.2.5 2 .8 2.4-.5.5-.9 1.1-1.4 1.7-.2.3-.5.7-.7 1 .1-.3.2-.7.3-1v-.6c-.1-1.4-1.3-2.4-1.3-2.4s-.9 1.4-.7 2.7c0 .1 0 .2.1.3.3 1 .8 1.7 1 1.9-.6 1-1.2 2.1-1.7 3.3.1-.6.2-1.3.1-1.8-.3-1.4-1.7-2.1-1.7-2.1s-.7 1.6-.3 2.8c.2.4.4.8.6 1.1.3.5.7.8.9.9-.5 1.1-.9 2.3-1.2 3.6 0-.6 0-1.4-.2-1.8-.5-1.3-2-1.8-2-1.8s-.5 1.7.1 2.8c.4.8 1.1 1.3 1.5 1.6.1.1.2.1.3.2-.3 1.1-.5 2.3-.6 3.5-.1-.6-.2-1.2-.5-1.6-.8-1.2-2.3-1.4-2.3-1.4s-.2 1.7.5 2.7c.7.9 1.7 1.3 2.1 1.5v.5c-.1.9-.1 1.9 0 2.8-.2-.5-.4-1.1-.7-1.4-1-1.1-2.6-1.1-2.6-1.1s0 1.8 1 2.7c.9.8 2 1.1 2.4 1.2 0 .4.1.8.2 1.1.1.7.2 1.3.4 2-.3-.5-.7-1-1.1-1.3-.5-.4-1.1-.6-1.6-.7-.8-.2-1.4-.1-1.4-.1v.1c.1.4.5 1.8 1.5 2.5 1.2.7 2.4.8 2.9.8.2.7.4 1.3.7 2 .1.3.3.7.4 1-.4-.4-.7-.7-1.1-1-.1 0-.1-.1-.2-.1-1.6-.8-3.5-.3-3.5-.3l.2.4c.3.6 1 1.5 2.1 1.9 1.4.5 2.7.4 3.3.3.6.9 1.2 1.8 1.9 2.7-.5-.4-1.2-.7-1.7-.9-1.8-.5-3.8.3-3.8.3s.3.4.8.9c.5.4 1.3.9 2.2 1 1.6.2 3-.1 3.5-.3.5.5 1 1 1.6 1.4.3.3.7.5 1 .8-.3-.1-.7-.2-1-.3-.4-.1-.7-.2-1-.2-2-.1-3.9 1-3.9 1s1.7 1.3 3.6 1.2c.5 0 1-.1 1.4-.2.4-.1.7-.2 1-.3.5-.2.9-.4 1.2-.5.9.6 1.8 1.1 2.7 1.5.1 0 .2.1.3.1-.3 0-.5-.1-.8-.1-.5-.1-.9-.1-1.3 0h-.3c-.6.1-1.2.3-1.7.5-.4.2-.7.4-1 .6-.5.3-.7.5-.7.5s.3.1.7.3c.3.1.6.2 1 .3.7.1 1.5.2 2.2 0 1.7-.4 2.9-1.1 3.3-1.4 1 .4 2 .7 3 1h0c-.7 0-1.4 0-1.9.2-2 .5-3.3 2.1-3.3 2.1s2.3.6 4.1 0c.4-.1.8-.3 1.1-.5.1-.1.3-.1.4-.2.7-.4 1.1-.8 1.4-1.1 1.1.2 2.2.4 3.2.5h.3c-.5.1-1 .2-1.3.3-1.5.7-2.2 2.1-2.2 2.1s2 .3 3.3-.4c1.1-.7 1.7-1.5 1.9-1.9H50c.2.4.7 1.3 1.9 1.9 1.3.7 3.3.4 3.3.4s-.7-1.4-2.2-2.1c-.4-.2-.9-.3-1.3-.3h.3c1-.1 2.1-.3 3.2-.5.4.4 1.3 1.3 2.9 1.8 1.8.6 4.1 0 4.1 0s-1.3-1.6-3.3-2.1c-.6-.1-1.3-.2-2-.2 1-.3 2-.6 3.1-1 .5.4 1.6 1.1 3.3 1.4 1.9.4 4-.5 4-.5s-1.5-1.3-3.4-1.6h-1.6c-.3 0-.6.1-.8.1.1 0 .2-.1.3-.1.9-.4 1.8-.9 2.7-1.5.5.3 1.8.8 3.5.9 1.9.1 3.6-1.2 3.6-1.2s-1.9-1.2-3.9-1c-.6 0-1.4.3-2 .5.9-.7 1.8-1.4 2.6-2.2.6.2 1.9.5 3.5.3.9-.1 1.6-.6 2.2-1l.9-.9s-2-.8-3.8-.3c-.6.1-1.2.5-1.7.9.7-.8 1.3-1.7 1.9-2.7.6.1 1.8.2 3.3-.3 1.1-.4 1.8-1.4 2.1-1.9.1-.3.2-.4.2-.4s-1.9-.5-3.5.3c-.1 0-.1.1-.2.1-.4.2-.8.6-1.1 1 .2-.3.3-.6.4-1-.4-.7-.2-1.4 0-2.1z" class="st1"/>
  <path d="M41.4 22.6c-.1-.1-.3-.1-.4-.2-.3-.1-.7-.2-1-.2-1.5-.1-2.7 1.1-2.6 2.5 0 .2 0 .4.1.6.1-.3.3-.5.6-.6.3-.1.7-.1 1 0 .4.2.7.6.7 1.1V37c0 1.3-1.7 1.8-2.3.6-.4 1.3.4 2.6 1.6 3 .2.1.4.1.6.1.3 0 .6 0 .8-.1.1 0 .3-.1.4-.1.1 0 .3-.1.4-.2.2-.1.4-.2.6-.4.2-.2.6.2.9.4.4.2.8.3 1.3.4h.2c.7.1 1.4.1 2 0h.3c.4-.1.8-.2 1.1-.4.1 0 .8-.5.7-.5.5.6 1.3.8 2.1.9.8.1 1.6.1 2.3.1-.5 0 .3 0 .4-.1h.7c.5-.1 1.1-.3 1.7-.2 1.2-.1 2.5-.1 3.7.3.1 0 .1 0 .2.1v-.1c.1-1.5.9-2.9.9-4.4 0-.3-.1-.6-.2-.9-.5-1-1.7-1.5-2.8-1.3-.4.1-.8.2-1 .5-.3.3-.1.5.1.8v.2c.1.4 0 .9-.1 1.3-.4.3-1.1.4-1.5.5-1.2.2-3.4.1-3.2-1.6 0-.1 0-.3.1-.4.4-1.4 1.9-2.2 3-2.8 1.4-.8 3.1-1.3 4.3-2.5l.1-.1c1.2-1.3 1.6-3.1.9-4.7-.1-.1-.1-.3-.2-.4-.7-1.3-2-2.2-3.5-2.6-1.8-.5-3.7-.1-5.5.3-.7.1-1.3.3-2 .3-.6 0-1-.3-1.5-.6 0 .9-.2 1.7-.4 2.6-.2.8-.4 1.6-.5 2.5 0 .8.1 1.5.8 2 .7.5 1.9.4 2.6-.1.3-.2 0-.8-.1-1.1 0-.4 0-.8.1-1.2.2-.8.8-1.5 1.6-1.8.2-.1.3-.1.5-.1.4-.1.8-.1 1.2 0 1.1.2 2 1.2 2.1 2.4.2 1.5-1.6 2.3-2.8 2.9-.1.1-.3.1-.4.2-1.4.7-2.8 1.4-3.8 2.6-.7.7-1.1 1.6-1.4 2.5-.2.7-.3 1.4-.3 2.1 0 .5 0 .8-.7.8-.8 0-1.2-.7-1.2-1.4V22.2c-.8 0-1.6.3-2.2.8-.4.2-.8-.2-1.1-.4zM38.5 43.1v4.5h.9v-1.8h.7l.9 1.4.2.4h1.1v-.1l-.9-1.4-.2-.3-.2-.3v-.1-.1c.2-.2.3-.4.4-.7 0-.1.1-.3.1-.4.1-.3.3-.4.6-.4v-.6c-.3-.1-.6-.1-.8 0-.2 0-.3.1-.4.2-.2.2-.3.4-.4.6-.1.5-.2.8-.4 1h-.6v-1.8h-1zM45.7 45.7l-2.5-2.6h-.3v4.5h.9V45l.8.8 1.8 1.8h.2v-4.5h-.9zM47.4 45.4v.4c.2 1.2 1.2 1.9 2.2 1.9 1.2 0 2.1-.8 2.3-1.9v-.4c0-1.5-1.1-2.3-2.3-2.3-1.1 0-2.2.8-2.2 2.3zm3.6 0c0 .2 0 .3-.1.4-.2.7-.7 1-1.3 1-.6 0-1.1-.3-1.3-1 0-.1-.1-.3-.1-.4 0-.9.6-1.4 1.3-1.4.9-.1 1.5.4 1.5 1.4zM53.3 47.6h1V44h1.1v-.9h-3.3v.9h1.2v1.8zM57.6 46.9c-.4 0-.9-.2-.9-.6h-.9c0 1 .9 1.4 1.8 1.4s1.8-.3 1.8-1.4c0-.2 0-.4-.1-.5-.2-.6-.9-.8-1.7-.8-.5-.1-.9-.1-.9-.5 0-.3.4-.5.8-.5s.8.2.8.5h.9c0-1-.9-1.4-1.7-1.4-.9 0-1.7.4-1.7 1.4 0 .9.8 1.2 1.6 1.3.2 0 .4 0 .6.1.2.1.4.2.4.5.1.4-.4.5-.8.5z" class="st1"/>
</svg>
