<?xml version="1.0" encoding="utf-8"?>
<!-- Generator: Adobe Illustrator 21.1.0, SVG Export Plug-In . SVG Version: 6.00 Build 0)  -->
<svg version="1.1" id="Слой_1" xmlns="http://www.w3.org/2000/svg" xmlns:xlink="http://www.w3.org/1999/xlink" x="0px" y="0px"
	 width="50px" height="50px" viewBox="0 0 50 50" style="enable-background:new 0 0 50 50;" xml:space="preserve">
<style type="text/css">
	.st0{fill:#282828;}
</style>
<g>
	<path class="st0" d="M38.27929,36.44575l-5.7158-2.8183c-0.2442-0.1192-0.4834-0.252-0.7217-0.3848l-0.2022-0.1113
		c-0.3623-0.1992-0.80859-0.1563-1.124,0.1094c-0.3164,0.2636-0.4375,0.6972-0.30559,1.0879l1.31439,3.8769l-1.0107-0.0762
		c-0.3243-0.0273-0.6455,0.1114-0.8526,0.3653l-2.0107,2.4746l2.709-7.9121c0.0429-0.125,0.0605-0.2578,0.0517-0.3887
		l-0.0058-0.7148c1.8173-0.0918,5.30271-0.5489,7.3379-2.6231c0.2421-0.248,0.33-0.6055,0.248-0.9414
		c-0.083-0.3359-0.3428-0.6094-0.6719-0.7168c-0.11329-0.0371-2.7636-0.9629-2.2226-6.456
		c0.4941-5.0147-0.2783-8.9307-2.1739-11.0225c-1.1425-1.2598-2.6377-1.877-4.46479-1.8203
		c-0.64361-0.5664-2.083-1.5508-4.29691-1.5508c-1.0263,0-2.1064,0.2129-3.2656,0.6562c-1.7217,0.6583-6.2959,2.4083-6.0742,12.0137
		c0.1465,6.3223-1.5879,7.9453-2.2168,8.0332c-0.3682,0.0059-0.7031,0.2149-0.8721,0.543
		c-0.1689,0.3262-0.1528,0.7207,0.0562,1.0234c0.08,0.1153,1.54441,2.6953,7.54441,2.9239v0.6933
		c0,0.1113,0.02589,0.2207,0.061,0.3242l2.72119,7.9356l2.7461,3.3769l0.0015,0.0254l-2.7549-3.4023l-2.0034-2.4746
		c-0.207-0.2539-0.523-0.3907-0.8501-0.3653l-0.9995,0.0762l1.3427-3.8711c0.1329-0.3847,0.021-0.8144-0.2875-1.082
		c-0.3086-0.2676-0.7486-0.3203-1.1109-0.1367l-6.709,3.33c-1.6797,0.8321-2.8955,2.3907-3.3134,4.2071
		c0.5429,0.582,1.11521,1.1347,1.7158,1.6582l0.1845-1.0215c0.2383-1.3164,1.0977-2.4551,2.29891-3.0508l4.52629-2.2344
		l-1.0351,2.9864c-0.1104,0.3183-0.0528,0.6699,0.1533,0.9375c0.2061,0.2675,0.5352,0.414,0.8682,0.3867l1.998-0.1524l5.2217,6.4258
		c0.0107,0.0137,0.0273,0.0176,0.0381,0.0313c0.0761,0.084,0.166,0.1523,0.2636,0.2051c0.0293,0.0175,0.0596,0.0332,0.09091,0.0468
		c0.12109,0.0508,0.249,0.086,0.38379,0.086c0.1347,0,0.2627-0.0352,0.3847-0.086c0.0313-0.0136,0.0606-0.0293,0.0899-0.0468
		c0.09761-0.0528,0.1875-0.1211,0.26361-0.2051c0.01079-0.0137,0.02739-0.0176,0.03809-0.0313l5.2227-6.4258l1.9971,0.1524
		c0.333,0.0234,0.66011-0.1192,0.8662-0.3848c0.206-0.2656,0.2646-0.6152,0.1572-0.9336l-1.0088-2.9746l4.498,2.2168
		c1.2012,0.5938,2.0606,1.7344,2.2989,3.0488l0.2177,1.1954c0.6045-0.5157,1.1817-1.0625,1.7295-1.6387
		C41.26759,38.94775,40.01849,37.30715,38.27929,36.44575z M24.87649,42.87155L21.333,32.54345v-1.5137
		c0-0.2656-0.09911-0.7705-0.28861-0.958c-0.1875-0.1855-0.4321-0.5449-0.6958-0.5449c-0.0029,0-0.0058,0-0.0097,0h-0.1846
		c-2.9922,0-4.77829-0.4512-5.7461-1.0391c0.0889-0.0781,0.1797-0.0439,0.2705-0.1396c1.5234-1.584,2.2441-4.5586,2.1426-8.9649
		c-0.1895-8.1962,3.2988-9.499,4.84371-10.0908c0.875-0.334,1.71389-0.4863,2.49609-0.4863c2.0684,0,3.1104,1.1826,3.1465,1.2236
		c0.2109,0.2539,0.52641,0.3916,0.8613,0.3604c1.3887-0.1231,2.458,0.2471,3.2715,1.1455c1.4903,1.6445,2.0977,5.1025,1.666,9.4834
		c-0.43839,4.4531,0.9698,6.6514,2.1641,7.6963c-1.6133,0.916-3.9326,1.2597-5.6777,1.2597l-0.1573-0.0019
		c-0.2607-0.002-0.5332,0.0957-0.72649,0.2832c-0.19341,0.1875-0.30371,0.4473-0.30371,0.7168l-0.0869,1.6113L24.87649,42.87155z"/>
	<g>
		<g>
			<path class="st0" d="M25,1.99955c12.68259,0,23,10.3183,23,23.0009c0,12.6817-10.31741,23-23,23c-12.68261,0-23-10.3183-23-23
				C2,12.31785,12.31739,1.99955,25,1.99955 M25-0.00045c-13.80661,0-25,11.1933-25,25.0009c0,13.8067,11.19339,25,25,25
				c13.80759,0,25-11.1933,25-25C50,11.19285,38.80759-0.00045,25-0.00045L25-0.00045z"/>
		</g>
	</g>
</g>
</svg>
