<?xml version="1.0" standalone="no"?>
<!DOCTYPE svg PUBLIC "-//W3C//DTD SVG 1.1//EN" "http://www.w3.org/Graphics/SVG/1.1/DTD/svg11.dtd">
<svg xmlns="http://www.w3.org/2000/svg">
<metadata>Generated by Fontastic.me</metadata>
<defs>
<font id="icon-fonts" horiz-adv-x="512">
<font-face font-family="icon-fonts" units-per-em="512" ascent="480" descent="-32"/>
<missing-glyph horiz-adv-x="512" />

<glyph glyph-name="facebook" unicode="&#97;" d="M384 509l0-76-45 0c-17 0-28-3-33-10-6-7-9-17-9-31l0-54 84 0-11-85-73 0 0-216-87 0 0 216-73 0 0 85 73 0 0 62c0 36 10 63 29 83 20 19 47 29 80 29 28 0 49-1 65-3z"/>
<glyph glyph-name="linkedin" unicode="&#98;" d="M136 333l0-283-94 0 0 283z m6 88c0-14-4-26-14-35-10-9-23-14-39-14l0 0c-16 0-29 5-38 14-10 9-14 21-14 35 0 14 4 26 14 35 10 9 23 14 39 14 16 0 28-5 38-14 9-9 14-21 14-35z m333-208l0-163-94 0 0 152c0 20-3 35-11 47-8 11-20 17-36 17-12 0-22-4-30-10-9-7-15-15-19-25-2-5-3-13-3-23l0-158-94 0c1 76 1 138 1 185 0 47 0 76 0 85l-1 13 94 0 0-41 0 0c4 6 7 12 11 16 4 5 10 10 17 15 6 5 15 10 24 13 10 3 21 4 33 4 33 0 59-11 79-32 20-22 29-54 29-95z"/>
<glyph glyph-name="instagram" unicode="&#99;" d="M426 105l0 185-39 0c4-12 6-25 6-38 0-24-6-46-18-66-13-20-29-36-50-48-21-12-44-18-69-18-37 0-69 13-96 39-27 26-40 57-40 93 0 13 2 26 6 38l-41 0 0-185c0-5 2-10 5-13 4-3 8-5 13-5l305 0c5 0 9 2 13 5 3 3 5 8 5 13z m-81 152c0 23-9 44-26 60-18 17-38 25-63 25-24 0-45-8-62-25-17-16-26-37-26-60 0-24 9-44 26-61 17-16 38-25 62-25 25 0 45 9 63 25 17 17 26 37 26 61z m81 103l0 47c0 5-2 10-6 14-4 4-8 6-14 6l-50 0c-5 0-10-2-14-6-4-4-5-9-5-14l0-47c0-6 1-10 5-14 4-4 9-6 14-6l50 0c6 0 10 2 14 6 4 4 6 8 6 14z m49 59l0-326c0-16-5-29-16-40-11-11-24-16-40-16l-326 0c-16 0-29 5-40 16-11 11-16 24-16 40l0 326c0 16 5 29 16 40 11 11 24 16 40 16l326 0c16 0 29-5 40-16 11-11 16-24 16-40z"/>
<glyph glyph-name="angle-right" unicode="&#100;" d="M335 238c0-3-1-5-3-7l-133-133c-2-2-5-3-7-3-2 0-5 1-7 3l-14 14c-2 2-3 4-3 7 0 2 1 5 3 6l112 113-112 112c-2 2-3 4-3 7 0 2 1 4 3 6l14 14c2 2 5 3 7 3 2 0 5-1 7-3l133-133c2-2 3-4 3-6z"/>
<glyph glyph-name="angle-left" unicode="&#101;" d="M344 357c0-3-1-5-3-7l-112-112 112-113c2-1 3-4 3-6 0-3-1-5-3-7l-14-14c-2-2-5-3-7-3-2 0-5 1-7 3l-133 133c-2 2-3 4-3 7 0 2 1 4 3 6l133 133c2 2 5 3 7 3 2 0 5-1 7-3l14-14c2-2 3-4 3-6z"/>
<glyph glyph-name="angle-down" unicode="&#102;" d="M399 302c0-3-1-5-3-7l-133-133c-2-2-5-3-7-3-2 0-5 1-7 3l-133 133c-2 2-3 4-3 7 0 2 1 4 3 6l15 15c1 1 4 2 6 2 3 0 5-1 7-2l112-113 112 113c2 1 4 2 7 2 2 0 5-1 6-2l15-15c2-2 3-4 3-6z"/>
<glyph glyph-name="youtube" unicode="&#104;" d="M366 256c0 7-3 12-9 15l-146 92c-6 4-12 4-19 0-6-3-9-8-9-16l0-182c0-8 3-13 9-16 3-2 6-3 9-3 4 0 7 1 10 3l146 92c6 3 9 8 9 15z m146 0c0-18 0-33 0-43 0-10-1-23-3-39-1-16-3-30-6-42-3-14-10-26-20-35-10-10-22-15-35-17-43-4-106-7-192-7-86 0-149 3-192 7-13 2-25 7-35 17-10 9-17 21-20 35-3 12-5 26-6 42-2 16-3 29-3 39 0 10 0 25 0 43 0 18 0 33 0 43 0 10 1 23 3 39 1 16 3 30 6 42 3 14 10 26 20 35 10 10 22 15 35 17 43 4 106 7 192 7 86 0 149-3 192-7 13-2 25-7 35-17 10-9 17-21 20-35 3-12 5-26 6-42 2-16 3-29 3-39 0-10 0-25 0-43z"/>
<glyph glyph-name="bow" unicode="&#111;" d="M393 34l-47 131 8 0c7 0 13 6 13 13 0 7-6 13-13 13l-17 0-43 118 2 1c6 9 8 19 8 28 0 20-12 37-31 45l-4 1 0 11c0 2 0 2 0 3l-2 4 5 2c5 1 10 7 10 13l0 67c0 7-6 12-13 12l-24 0c-7 0-13-5-13-12l0-67c0-6 4-12 10-13l4-2-3-4c0-1 0-1 0-3l0-11-3-1c-18-8-31-25-31-45 0-9 3-19 9-28l1-1-43-118-17 0c-7 0-13-6-13-13 0-7 6-13 13-13l9 0-47-131c-3-7 1-14 8-17 8-3 15 1 17 9l52 140 48 0 0-12c0-8 6-13 13-15 7-1 13 6 14 13 0 0 0 0 0 2l0 12 48 0 52-140c2-8 10-10 17-9 1 1 5 10 3 17z m-124 157l0 12c0 7-6 13-13 15-7 0-13-6-14-13 0 0 0 0 0-2l0-12-39 0 37 102 3-1c7-2 14-2 22 0l2 1 37-102z"/>
<glyph glyph-name="cards" unicode="&#112;" d="M448 269l-189 189c-14 14-39 14-54 0l-104-104c-14-16-14-40 0-54l17-17 40 0-37 37c-2 1-3 4-3 7 0 3 1 6 3 7l14 13 66-65 62 0-97 96 59 59c1 2 4 4 7 4 3 0 6-2 7-3l189-189c2-2 3-4 3-7 0-3-1-6-3-7l-11-10 0-40 30 30c15 15 15 40 1 54z m-51-41c0 21-17 38-37 38l-268 0c-21 0-38-17-38-38l0-101 344 0 0 101z m-29 0l0-73-287 0 0 26c1-5 3-9 7-12 10-11 29-11 40-1 6-4 11-7 18-7 8 0 15 3 20 7 12 10 12 28 2 40-10 11-29 11-40 1-11 10-27 10-38 0-5-3-6-7-8-13l0 32c0 5 6 10 10 10l268 0c4-2 8-5 8-10z m29-147l0 3-344 0 0-3c1-21 18-38 39-38l268 0c20 0 37 17 37 38z"/>
<glyph glyph-name="cocktail" unicode="&#113;" d="M395 468c-34 0-62-24-68-57l-267 0c-7-1-13-6-13-13 0-3 1-5 3-8l153-175c3-3 6-5 10-5l2 0c0-46 0-93 0-142l-49 0c-7 0-12-5-12-13 0-7 5-12 12-12l121 0c7 0 13 5 13 12 0 8-6 13-13 13l-48 0c0 47 0 96 0 142l3 0c3 0 7 2 8 5l108 123c12-7 23-9 36-9 38 0 70 32 68 71 2 37-28 66-67 68z m-159-232l-17 0-82 93 180 0z m112 127l-8-10-225 0-28 32 281 0z m91 22c-5-19-22-32-42-32-7 0-13 1-20 4l28 33c5 5 5 12-1 17-3 1-6 3-9 3l-42 0c7 24 31 38 55 31 24-7 37-31 31-56z"/>
<glyph glyph-name="compass" unicode="&#114;" d="M256 474c-121 0-218-97-218-218 0-121 97-218 218-218 121 0 218 97 218 218 0 119-99 218-218 218z m142-347l-35 39c-5 5-10 5-15 2-4-4-4-10-1-14l37-42c-34-30-78-48-128-48-107 0-192 87-192 192 0 47 17 91 46 125l36-40c2-3 6-4 9-4 3 0 6 1 7 3 4 4 4 11 0 16l-37 41c34 33 81 52 131 52 107 0 192-86 192-192 0-51-18-96-50-130z m-23 244c-2 6-11 9-17 6l-142-75c-3-2-4-3-6-6l-75-141c-3-6-1-14 6-17 4-1 8-1 11 0l142 75c3 2 5 3 6 6l75 141c0 0 0 0 0 1 3 2 3 6 0 10z m-197-193l48 89 41-41z m156 156l-89-48 41-41-41 41z"/>
<glyph glyph-name="conditioner" unicode="&#115;" d="M499 269l-65 0 31 55c3 6 1 13-4 17-6 5-14 2-17-4l-39-68-55 0 10 18c3 6 1 15-6 17-6 3-14 2-17-5l-17-32-40 0 20 35 36 0c7 0 12 5 12 12 0 7-5 13-12 13l-23 0 28 48 79 0c7 0 12 6 12 13 0 7-5 13-12 13l-64 0 32 57c3 6 2 13-4 17-6 4-14 1-17-4l-33-57-31 55c-4 6-11 9-17 5-6-5-9-12-4-17l38-69-28-48-10 18c0 0 0 0 0 2-5 6-12 7-17 4-6-4-8-11-5-17l17-31-21-34-20 34 17 31c0 0 0 0 0 1 3 6 2 15-6 18-5 2-14 1-17-6l-8-19-29 49 39 68c3 6 1 14-6 17-6 3-14 1-17-6l-31-55-33 57c-3 8-10 10-17 7-6-4-9-12-4-17l32-57-64 0c-7-2-12-7-12-14 0-7 5-12 12-12l79 0 28-48-21 0c-7 0-13-6-13-13 0-7 6-13 13-13l35 0 20-34-40 0-17 32c-2 5-11 8-17 4-5-3-8-12-4-17l10-19-57 0-38 68c-3 6-12 8-17 5-6-3-9-12-6-17l31-56-65 0c-7-1-13-7-13-14 0-7 6-13 13-13l65 0-31-55c-1-2-1-5-1-6 0-7 5-13 12-13 5 0 9 3 12 6l38 68 56 0-10-18c-2-2-2-5-2-6 0-7 6-13 13-13 4 0 9 3 11 6l17 31 40 0-20-34-35 0c-7 0-13-6-13-13 0-7 6-13 13-13l21 0-28-48-79 0c-7 0-12-6-12-13 0-7 5-12 12-12l64 0-32-57c-2-2-2-5-2-6 0-7 6-13 13-13 4 0 9 3 11 6l33 57 31-56c3-4 8-5 12-5 3 0 4 0 6 1 5 3 8 11 4 17l-39 68 29 49 10-19c3-4 7-6 11-6 3 0 4 0 6 2 6 3 8 11 4 17l-17 31 20 34 20-34-17-31c-2-1-2-4-2-6 0-7 6-13 13-13 4 0 9 3 12 6l10 19 28-49-38-68c-3-6-2-14 4-17 1-1 4-1 6-1 4 0 8 2 11 5l31 56 33-57c3-4 7-6 11-6 3 0 5 0 6 2 6 2 9 11 4 17l-32 57 64 0c7 0 12 5 12 12 0 7-5 13-12 13l-79 0-28 48 21 0c7 0 13 6 13 13 0 7-6 13-13 13l-35 0-20 36 40 0 17-32c2-4 7-5 11-5 3 0 4 0 6 1 5 3 8 11 4 17l-10 19 55 0 39-69c3-4 7-5 11-5 3 0 5 0 6 1 6 3 8 11 4 17l-31 56 65 0c7 0 13 5 13 12 0 8-3 12-10 12z"/>
<glyph glyph-name="cooler" unicode="&#116;" d="M108 65c9 8 20 8 29 0 17-17 44-17 59 0 9 8 20 8 29 0 17-17 44-17 59 0 9 8 20 8 29 0 17-17 44-17 60 0 8 8 20 8 28 0 17-15 43-15 60 0 4 5 4 12 0 16-4 4-12 4-16 0-8-7-20-7-28 0-17 17-44 17-60 0-9-7-20-7-28 0-18 17-45 17-60 0-9-7-20-7-29 0-17 17-44 17-59 0-9-7-20-7-29 0-17 17-44 17-60 0-8-7-19-7-28 0-4 4-11 4-16 0-4-4-4-11 0-16 17-17 44-17 60 0z m356-37c-5 5-12 5-16 0-9-7-20-7-28 0-18 18-45 18-60 0-9-7-20-7-29 0-17 18-44 18-59 0-9-7-20-7-29 0-17 18-44 18-60 0-8-7-19-7-28 0-17 18-44 18-60 0-8-7-20-7-28 0-4 5-12 5-16 0-4-4-4-11 0-15 17-17 44-17 60 0 8 7 20 7 28 0 17-17 44-17 60 0 9 7 20 7 29 0 17-17 44-17 59 0 9 7 20 7 29 0 17-17 44-17 59 0 9 7 20 7 29 0 17-16 43-16 60 0 4 4 4 11 0 15z m-208 96c70 0 127 57 128 128 0 84-112 249-118 256 0 1-1 1-3 3-6 4-13 2-17-3-11-17-118-175-118-256 1-71 58-128 128-128z m0 22c-57 0-104 47-104 104 0 64 77 187 104 229 27-42 104-165 104-229 0-57-46-104-104-104z m74 107c-6 0-10-4-10-10 0-28-23-51-51-51-6 0-10-4-10-10 0-6 4-10 10-10 40 0 71 31 71 71 0 6-4 10-10 10z"/>
<glyph glyph-name="document" unicode="&#117;" d="M375 438l-238 0c-8 0-12-6-12-11l0-339c0-7 6-11 12-11l238 0c8 0 12 5 13 11l0 337c0 7-5 13-13 13z m-187-24l35 0 0-66-10 8c-4 2-10 2-12 0l-12-8 0 66z m176-316l-216 0 0 36 215 0 0-36z m0 60l-216 0 0 256 16 0 0-88c0-7 5-12 12-12 3 0 5 0 7 2l23 15 23-15c1-2 4-2 7-2 2 0 4 0 6 2 4 1 5 5 5 11l0 87 116 0 0-256z m-68 156l40 0c7 0 11 6 11 13 0 6-6 11-11 11l-40 0c-7 0-12-5-12-12 0-7 6-12 12-12z m40-96l-160 0c-7 0-11-6-11-13 0-7 6-12 11-12l160 0c7 0 11 6 11 12 1 8-4 13-11 13z m-80-114c7 0 13 6 13 11 0 3-2 6-3 9-4 3-7 4-10 4-7 0-13-6-13-11 0-7 6-13 13-13z m-81 131c0-2 1-2 0 0l161 0c7 0 11 5 11 12 0 6-6 12-11 12l-160 0c-7 0-12-4-12-12 0-7 4-12 11-12z m0 39c0-1 1-1 0 0l161 0c7 0 11 6 11 13 0 6-6 12-11 12l-160 0c-7 0-12-5-12-12 0-7 4-13 11-13z"/>
<glyph glyph-name="fan" unicode="&#118;" d="M471 186c-50 24-103 44-158 57-3 9-7 16-13 23 9 26 14 53 19 80 32-17 55-47 65-83 3-8 10-13 18-10 9 3 13 10 10 19-12 47-45 85-89 105 1 11 3 21 4 30 68-27 114-91 120-165 0-7 7-14 14-14l1 0c9 0 14 7 14 15-5 88-64 164-146 194-1 41-36 72-75 71-40-2-72-34-72-74 5-57 15-114 30-168-5-7-10-14-12-23-26-5-52-13-77-23-2 37 13 73 38 99 6 5 6 15 0 21-6 6-16 6-21 0-34-34-51-81-47-130-10-4-20-8-29-11-8 73 25 144 84 185 7 4 10 14 6 21-4 7-13 9-20 5-74-50-111-138-95-225-34-21-46-67-24-101 21-33 64-44 98-26 47 32 89 69 128 110 8-2 17-2 25 0 17-20 37-37 56-54-31-20-70-26-105-16-9 3-16-3-19-10-3-8 3-15 10-18 47-13 97-3 135 25 9-7 16-13 24-18-58-46-136-54-202-22-7 3-15 0-20-7-2-7 0-15 8-18 79-39 173-27 240 30 36-20 81-6 100 30 24 32 11 76-23 96z m-258 248c0 24 20 44 44 44 25 0 45-20 45-44-5-51-13-103-28-152-11 2-24 2-35 0-13 49-23 101-26 152z m-112-350c-21-13-48-6-61 16-13 21-6 48 15 61 46 22 94 40 144 51 3-11 9-23 17-30-34-36-74-70-115-98z m185 142c0-16-13-30-30-30-16 0-30 13-30 30 0 16 13 30 30 30 17 0 30-14 30-30z m186-125c-13-21-40-28-60-16-41 29-79 61-115 98 9 9 14 19 17 30 49-12 97-30 141-51 21-14 29-41 17-61z"/>
<glyph glyph-name="flash" unicode="&#119;" d="M360 306l-56 0 74 129c5 6 5 14 0 20-4 6-10 10-18 10l-95 0c-12 0-23-7-29-17l-102-212c-3-6-3-14 0-20 4-6 10-10 17-10l75-1-54-137c-1-4-1-11 2-15 2-3 5-6 9-6l2 0c6 0 11 3 14 8l176 221c8 7 8 18 0 26-5 4-9 5-15 4z m-127-161l20 50c6 14-1 31-15 37-3 1-8 1-10 1l-63 2 97 199c0 1 1 1 3 1l81 0-66-116c-7-15-3-32 12-39 4-3 8-4 14-4l35 0z"/>
<glyph glyph-name="hat" unicode="&#120;" d="M259 313c0 1-2 3-3 3-1 0-3-2-4-3 0-2 1-3 3-4 2 1 4 2 4 4z m78-51c0 54-35 98-81 98-44 0-81-44-81-98 0-54 35-98 81-98 44 0 81 44 81 98z m-90-63c-17 4-31 16-39 31l-5-5c-1-2-2-2-4 0-1 0-1 1-1 3l4 22c0 2 1 2 1 3 2 0 2 0 3 0l20-13c2-1 2-2 2-4 0-1-2-1-3-1l-9 0c9-10 20-16 33-16l0 67-7 0c-2-2-3-2-4-2-3 0-6 3-6 6 0 3 3 6 6 6 1 0 2 0 4-2l7 0 0 9c-4 3-6 7-6 11 0 7 6 15 14 15 8 0 15-6 15-15 0-4-3-8-6-11l0-9 4 0c2 2 3 2 4 2 3 0 6-3 6-6 0-3-3-6-6-6-1 0-2 0-4 2l-7 0 0-67c13 0 24 6 31 16l-8 0c-2 0-3 1-3 1 0 2 0 3 1 3l20 13c2 0 2 0 3 0 2 0 2-2 2-3l4-23c0-1-2-3-3-3-1 0-3 0-3 2l-4 5c-9-15-23-27-41-31l-6-6c-1-1-3-1-4 0z m9-60c-18 0-34 6-48 15-77-3-123-12-128-17 14-39 88-82 176-82l1 0c89 0 163 43 177 82-7 5-51 14-128 17-16-10-33-15-50-15z m0 318c-135 0-253-97-253-177 0-40 35-64 72-77l0-42c35 10 70 15 104 15-8 12-15 25-21 37 0 2 0 2-2 3-4 14-7 29-7 44 0 3 0 6 0 10-51-5-76-14-81-24l0-17c-21 10-42 30-42 50 2 62 101 156 230 156 0 0 0 0 1 0 130 0 227-95 227-156 0-20-22-40-43-50l0 17c-4 10-29 20-81 24 0-3 0-5 0-10 0-14-3-30-7-44 0-1 0-1-2-3-4-14-11-25-21-37 36-1 71-5 104-15l0 42c37 13 72 37 72 77 3 80-116 177-250 177z"/>
<glyph glyph-name="info" unicode="&#121;" d="M350 282l0 92c0 1 0 1-2 3l-62 64c0 0-2 1-3 1l-209 0c-1-1-3-3-3-4l0-364c0-1 2-3 3-3l273 0c1 0 1 0 1 2 47 5 86 42 91 89 10 57-31 111-89 120z m-90-106c0 42 34 76 76 76 41 0 74-34 75-76 0-41-34-75-75-75-42 0-76 34-76 75z m60 106c-6-2-11-2-16-5 0 0 0 2 0 2l0 23c0 1-1 4-4 4l-181 0c-1 0-4-2-4-4l0-23c0-2 2-5 4-5l180 0c-10-4-20-8-29-15l-151 0c-1 0-4-2-4-4l0-23c0-2 2-4 4-4l126 0c-3-6-6-10-7-16l-119 0c-1 0-4-2-4-4l0-23c0-2 2-4 4-4l111 0c0-3 0-6 0-7 0-29 12-57 33-77l-162 0-1 315 152 0 0-65c0-1 1-4 4-4l64 0z m-38 91l0 28 28-28z m65-181l-23 0c-1 0-4-1-4-4l0-69c0-1 1-4 4-4l23 0c1 0 4 2 4 4l0 69c-1 1-3 4-4 4z m0 46l-23 0c-1 0-4-2-4-5l0-23c0-1 1-4 4-4l23 0c1 0 4 2 4 4l0 23c-1 2-3 5-4 5z"/>
<glyph glyph-name="message" unicode="&#122;" d="M266 128c-3 0-6 0-10 0-26 0-50 4-74 14-3 2-6 2-8 0l-83-34 28 68c2 5 2 9-1 12-23 25-36 58-36 92 0 84 79 151 174 151 95 0 174-68 174-151 0-20-6-41-15-60-3-5 0-11 5-14 1 0 2-1 4-1 4 0 7 3 10 5 11 22 17 45 17 69 0 95-87 172-194 172-106 0-193-77-193-172 0-36 13-71 36-98l0-5-36-85c-1-4-1-9 3-11 1-2 4-3 7-3 1 0 3 0 4 1l103 43 1 0c27-10 57-14 85-13 6 0 10 6 10 11-1 5-7 9-11 9z m172 4l-85 86c-2 1-3 2-5 2l-62 18c-4 1-7 0-10-3-3-3-4-7-3-10l19-61c0-2 1-3 2-5l86-85c15-16 42-16 58 0 16 16 16 43 0 58z m-65-21l-63 63-11 38 41-11 61-62z m49-23c-8-8-21-8-28 0l-7 7 28 29 7-7c9-7 9-20 0-29z m-152 194c0-9-7-16-15-16-9 0-16 7-16 16 0 8 7 15 16 15 8 0 15-7 15-15z m71 0c0-9-7-16-15-16-9 0-16 7-16 16 0 8 7 15 16 15 8 0 15-7 15-15z m-140 0c0-9-7-16-16-16-9 0-16 7-16 16 0 8 7 15 16 15 9 0 16-7 16-15z"/>
<glyph glyph-name="motor" unicode="&#65;" d="M512 273c-1 6-7 9-13 9l0 5c0 3-1 7-4 10-3 3-6 5-10 5l-97-2c-7 0-13-6-13-13l0-8-2 0-90 72c-6 5-13 7-20 7l-118 0c-6 2-11-2-14-8-3-7 1-14 8-16l36-17-53-48-76-6c-10 0-18-7-19-17l-4-40-6 0c-10 0-17-8-18-18l0-14c0-10 8-19 18-19l384 0c9 0 16 4 20 10 26 34 53 65 84 94 6 3 8 8 7 14z m-310 38c3 9 0 18-9 20l-5 3 75 0c2 0 3-1 6-1l69-57-179-7 40 37c0 1 2 3 3 5z m283-22l0-7-14 0 0 7z m-27 0l0-7-16 0 0 8z m-28 0l0-9-19 0 0 9z m-30-2l0-8-12 0 0 8z m71-28c-10-10-19-21-27-33-7-8-14-18-22-25l-378-6c2 1 2 4 2 6l4 39z m-60-71c-3-3-6-7-7-10 0 0-2-2-2-2l-379 0 0 5z m-202 25l131 3c6 0 11 6 11 12 0 5-5 11-11 11l-131-3c-6 0-11-6-11-11 0-6 4-12 11-12z"/>
<glyph glyph-name="regulation" unicode="&#66;" d="M343 425l-197 0c-15 16-34 24-55 24l-63 0c-15 0-28-12-28-28l0-330c0-16 13-28 28-28l63 0c21 0 40 8 54 24l196 0c93 1 168 75 168 168 3 93-72 170-166 170z m0-314l-182 0c3 8 4 17 4 27l0 236c0 9-1 19-4 27l180 0c80 0 145-65 145-145 0-80-64-145-143-145z m-319 310c0 1 2 3 3 3l63 0c28 0 49-23 49-50l0-236c0-28-22-50-49-50l-62 0c-1 0-2 2-2 3l0 330z m319-43l-78 0c-42 0-76-34-76-75l0-94c0-41 34-75 76-75l75 0c31 0 62 11 85 34 24 21 39 51 40 82 0 2 0 5 0 6 0 68-55 122-122 122z m-3-220l-75 0c-29 0-50 23-50 50l0 94c0 28 23 49 50 49l78 0c1 0 3 0 4 0 54-3 95-48 92-102-1-26-12-48-31-66-18-15-42-25-68-25z m-280-24l50 0c7 0 12 5 12 12 0 8-5 13-12 13l-50 0c-7 0-13-5-13-13 0-7 6-12 13-12z m220 173c-28 0-51-23-51-51 0-28 23-51 51-51 29 0 51 23 51 51 0 28-22 51-51 51z m0-24c14 0 27-11 27-27 0-14-11-27-27-27-15 0-27 13-27 27 0 14 12 27 27 27z m-220 40l13 0 0-10c0-7 5-13 12-13 7 0 13 6 13 13l0 10 13 0c7 0 13 6 13 13 0 7-6 12-13 12l-14 0 0 15c0 7-6 12-12 12-7 0-12-5-12-12l0-15-13 0c-7 0-13-5-13-12 0-7 6-13 13-13z"/>
<glyph glyph-name="search" unicode="&#67;" d="M444 112l-84 84-6-5-8 8c52 71 37 171-33 222-71 53-169 38-222-31-53-70-38-170 33-222 57-41 133-43 189 0l8-9-5-5 84-84c12-13 32-13 44 0 13 11 13 31 0 42z m-134 90c-51-51-134-51-185 0-51 51-51 134 0 185 51 51 134 51 185 0 51-51 51-134 0-185z m-61 95c-2 2-4 3-7 5-7 4-14 7-22 9-4 2-8 5-11 8-4 2-6 10-3 14 2 1 3 3 6 4 3 1 4 1 7 1 10 0 19-1 27-5 4-2 6-2 7 3 2 4 3 10 4 14 2 3 0 6-2 7-6 3-12 4-17 6-8 1-8 1-8 8 0 12 0 12-11 12l-6 0c-5 0-5-2-5-6 0-3 0-4 0-7 0-7 0-7-7-9-16-4-26-18-27-34-2-14 7-27 19-33 9-4 16-7 25-11 2-1 5-3 8-6 6-4 7-11 3-17-1-1-3-4-6-4-4-1-10-3-15-1-9-2-16 1-23 4-4 3-6 1-7-3-2-4-3-9-4-13-2-5-2-7 4-10 7-3 14-5 21-5 6-2 6-2 6-8 0-2 0-5 0-8 0-3 1-6 5-6 5 0 9 0 12 0 3 0 4 2 6 4 0 0 0 0 0 2 0 4 0 7 0 11 0 3 1 6 5 7 9 3 16 8 22 15 12 15 10 39-6 52z"/>
<glyph glyph-name="support" unicode="&#68;" d="M188 393c-3 5-10 8-16 5-67-32-108-99-108-175l0-35-14 0c-7 0-13 5-13 13l0 52c0 6 4 10 9 12 5 1 9 8 7 14-2 5-9 10-15 7-14-4-24-19-24-34l0-53c0-20 16-35 36-35l24 0c7 0 11 5 11 11l0 47c0 65 37 125 96 153 7 5 10 12 7 18z m214 31c-1 0-1 0 0 0-7 0-11-4-11-12l0-21c0-6-4-10-10-10-6 0-10 4-10 10l0 21c0 6-5 12-11 12-6 0-13-4-13-12l0-21c0-18 14-33 33-33 3 0 7 0 10 2l0-22c0-5 5-11 11-11 6 0 11 6 11 11l0 74c0 8-4 12-10 12z m72-137c-6 2-13-1-15-7-1-6 2-13 7-14 6-1 9-7 9-11l0-53c0-7-6-13-11-13l-16 0c1 12 3 23 3 36 0 22-4 45-12 68 42 47 43 117 5 165-44 57-127 67-184 23-57-44-67-127-22-184 44-57 126-67 183-23 27-89-23-184-112-211-7 11-19 18-32 18l-37 0c-20 0-37-17-37-37 0-20 17-37 37-37l37 0c20 0 36 14 37 34 61 19 110 66 130 127l21 0c20 0 36 17 36 35l0 53c-3 13-13 27-27 31z m-185-246c0-7-7-14-15-14l-36 0c-8 0-15 6-15 14 0 9 6 14 15 14l36 0c8 0 13-4 15-11 0 0 0-1 0-3z m49 228c-59 0-108 48-108 108 0 60 49 108 108 108 60 0 109-48 109-108 0-60-49-108-109-108z m-42 155c-19 0-33-14-33-33 0-6 6-11 11-11 6 0 12 5 12 11 0 6 4 10 10 10 6 0 10-4 10-10 0-4 0-4-4-8 0 0-2-2-3-3l-33-34c-3-3-4-9-1-13 0-2 1-3 2-4 2-2 3-2 5-3 1 0 2-2 4-2l41 0c6 0 12 6 12 12 0 5-6 11-12 11l-14 0 14 14c0 2 2 2 2 3 7 6 11 14 11 24-1 22-16 36-34 36z"/>
<glyph glyph-name="user" unicode="&#69;" d="M427 134l-73 37c-3 1-6 3-8 4l-5 1c-5 3-14 2-17-5-1-3-1-7-1-10l17-50-13 1c-4 0-8-1-11-4l-26-31 34 101c0 1 2 3 0 4l0 9c23 1 69 7 94 34 3 3 4 7 3 11-1 4-4 7-9 9-1 0-35 12-28 82 6 64-4 114-27 141-14 16-36 24-57 23-14 14-34 21-54 21-14 0-28-3-41-9-22-8-80-29-77-153 1-81-20-101-28-103-8 0-13-5-13-12 0-3 1-5 3-7 1-2 20-35 96-37l0-9c0-1 0-3 2-4l34-101 35-43-35 44-26 32c-3 2-7 5-11 4l-14-3 17 50c3 7-2 14-9 15-3 2-7 2-10 0l-85-42c-21-12-37-30-43-54 7-7 14-15 22-22l2 13c3 17 15 31 30 39l59 28-13-38c-3-8 1-15 8-16 2 0 3-2 6 0l26 1 66-82c2-2 2-2 3-3 0 0 2 0 2 0 3-1 7-1 10 0 0 0 1 0 1 0 2 0 3 1 3 3l67 82 25-1c8 0 13 4 15 11 0 2 0 3 0 6l-13 38 57-28c15-7 25-21 30-38l2-16c8 7 16 14 23 21-7 24-23 46-45 56z m-171-81l-46 132 0 20c0 4-1 8-4 13-3 2-5 7-8 7l-3 0c-39 0-61 5-74 13 1 1 3 0 3 1 20 20 28 58 27 114-3 105 42 121 61 129 10 4 21 6 31 6 16 0 30-6 40-16 3-3 7-6 11-4 16 3 32-3 42-14 18-22 27-66 21-121-6-57 13-86 27-98-23-12-47-17-73-16l-1 0c-3 0-7-1-10-4-3-3-4-6-4-9l-2-20z"/>
<glyph glyph-name="yachts" unicode="&#72;" d="M499 149l-82 0c-9 0-15-7-15-14 0-8 8-14 15-14l31 0-60-37-62 0 64 40c4 3 7 7 7 13 0 8-7 14-14 14l-370 0c-2 0-2 0-3 0-9-2-13-10-11-17l17-86c1-7 7-11 14-11l216 0c3 0 6 1 9 3l25 15c0 0 2 0 2 0l112 0c3 0 6 2 8 3l109 67c4 3 7 7 7 13-3 6-10 11-19 11z m-257-84l-199 0-12 56 299 0z m75 282c7-3 16 1 19 9l11 28c61-41 63-149 60-182l-69 0c-8 0-14-7-14-14 0-7 7-14 14-14l82 0c5 0 11 2 14 8 8 17 18 191-88 239 0 0 0 0-2 0-7 3-15-1-18-9l-16-42c-4-12 0-20 7-23z m-219-176l202 0c6 0 11 3 14 8 9 20 20 238-109 296 0 0 0 0-2 0-7 3-15-1-18-9l-101-275c0-2-2-3-2-6 0-7 8-14 16-14z m108 270c86-53 86-199 81-240l-168 0z"/>
<glyph glyph-name="favorites" unicode="&#78;" d="M471 82l-7 49c0 1-2 4-3 6 0 0-2 1-2 1-1 1-2 3-5 3 0 0 0 0-2 0-1 0-3 0-4 0l-46-7c-7-2-11-7-9-15 1-7 7-11 14-9l18 2c-13-18-28-34-47-47-34-24-72-37-111-39l0 31c30 16 59 35 84 60 23 21 43 47 59 74 29 55 27 106-9 140-14 13-34 20-53 20-28-1-55-10-79-22l0 48 61 0c7 0 13 6 13 13 0 7-6 12-13 12l-61 0 0 15-6 0c24 3 43 22 43 48-2 26-23 47-50 47-27 0-50-21-50-48 0-25 19-46 43-49l-6 0 0-14-61 0c-7 0-13-6-13-13 0-7 6-13 13-13l61 0 0-48c-24 13-51 21-79 23-20 1-39-6-53-19-36-34-38-86-9-140 16-27 36-53 59-74 25-25 52-44 84-60l0-31c-62 2-121 32-160 85l19-3c7-1 13 3 14 10 1 7-3 13-10 14l-45 7c-2 0-3 0-5 0-3 0-4-1-5-2 0 0 0 0-2-2-1-1-3-4-3-6l-7-48c0 0 0-1 0-1 0-6 5-12 10-12 7-1 13 3 14 10l3 16c44-60 113-94 187-94l2 0c74 0 143 36 187 94l3-16c1-5 5-10 11-10 7 0 13 6 13 13 0 0 0 0 0 1z m-241 382c0 14 12 24 26 24 14 0 26-12 26-24 0-13-12-25-25-25-14-1-25 10-27 25z m26-387c-28 15-55 34-78 55-22 20-40 43-54 69-24 45-23 85 4 112 10 8 23 13 37 13 31-2 60-13 85-30 5-3 9-3 13 0 50 33 100 40 122 17 27-27 29-67 5-112-15-26-33-49-54-69-25-21-52-40-80-55z"/>
<glyph glyph-name="star" unicode="&#81;" d="M494 327c0-4-3-9-8-14l-103-101 24-143c0-1 0-3 0-5 0-4-1-8-3-10-2-3-4-5-8-5-4 0-8 2-12 4l-128 67-128-67c-4-2-8-4-12-4-4 0-7 2-9 5-2 2-3 6-3 10 0 1 0 3 1 5l24 143-104 101c-4 6-7 10-7 14 0 7 6 12 16 13l144 21 64 130c4 8 8 12 14 12 6 0 10-4 14-12l64-130 144-21c10-1 16-6 16-13z"/>
<glyph glyph-name="star-o" unicode="&#82;" d="M343 225l88 85-121 18-54 109-54-109-121-18 88-85-21-120 108 57 108-57z m151 102c0-4-3-9-8-14l-103-101 24-143c0-1 0-3 0-5 0-10-3-15-11-15-4 0-8 2-12 4l-128 67-128-67c-4-2-8-4-12-4-4 0-7 2-9 5-2 2-3 6-3 10 0 1 0 3 1 5l24 143-104 101c-4 6-7 10-7 14 0 7 6 12 16 13l144 21 64 130c4 8 8 12 14 12 6 0 10-4 14-12l64-130 144-21c10-1 16-6 16-13z"/>
<glyph glyph-name="map" unicode="&#76;" d="M473 375l-104 71c-5 3-11 3-15 0l-98-66-97 66c-4 3-10 3-15 0l-105-71c-4-3-7-8-7-14l0-281c0-6 3-11 8-14 4-3 10-3 15 0l97 66 97-66c5-3 10-3 15 0l97 66 97-66c3-1 5-2 8-2 2 0 5 1 7 2 4 3 7 8 7 14l0 281c0 6-2 11-7 14z m-338-216l-71-50 0 242 71 50z m32 0l0 123c1-1 2-2 3-2l10 13c-4 2-9 5-13 7l0 101 73-49 0-109c-5 2-11 5-16 8l-8-13c6-5 13-8 20-10l4 11 0-129z m105-49l0 114c0 0 1 0 1 0 3 0 6 0 9 1l-3 15c-2 0-5 0-7 0l0 112 73 49 0-119-5 5c-3-4-6-7-8-10-2-2-4-4-6-6l12-11c2 2 4 4 6 6 0 1 1 1 1 2l0-109z m176 0l-71 49 0 137c4 1 8 3 12 3l-4 16c-2 0-5-1-8-2l0 88 71-49z m-319 181c3 1-1 1 1 2l-5 15c-3-1-6-2-9-4-4-2-8-5-12-8l11-12c3 2 12 5 14 7z m168-45l7-15c6 4 13 8 19 13l-11 12c-5-4-10-8-15-10z m-198 10c2 6 4 11 7 16l-13 9c-5-7-7-14-9-20l0-1 15-5z m99 18c-1 1-2 3-3 4l-12-11c1-1 2-2 3-3 4-4 7-9 12-13l11 12c-4 3-7 7-11 11z m210 8l11 11 10-11 11 12-10 10 10 10-11 12-10-11-11 11-11-12 10-10-10-10z"/>
<glyph glyph-name="calendar" unicode="&#80;" d="M55 37l82 0 0 82-82 0z m100 0l92 0 0 82-92 0z m-100 100l82 0 0 92-82 0z m100 0l92 0 0 92-92 0z m-100 110l82 0 0 82-82 0z m210-210l92 0 0 82-92 0z m-110 210l92 0 0 82-92 0z m220-210l82 0 0 82-82 0z m-110 100l92 0 0 92-92 0z m-100 247l0 82c0 3-1 5-3 7-2 2-4 2-7 2l-18 0c-2 0-4 0-6-2-2-2-3-4-3-7l0-82c0-2 1-5 3-6 2-2 4-3 6-3l18 0c3 0 5 1 7 3 2 1 3 4 3 6z m210-247l82 0 0 92-82 0z m-110 110l92 0 0 82-92 0z m110 0l82 0 0 82-82 0z m9 137l0 82c0 3-1 5-3 7-2 2-4 2-6 2l-18 0c-3 0-5 0-7-2-2-2-3-4-3-7l0-82c0-2 1-5 3-6 2-2 4-3 7-3l18 0c2 0 4 1 6 3 2 1 3 4 3 6z m110 18l0-365c0-10-4-19-11-26-7-7-16-11-26-11l-402 0c-10 0-19 4-26 11-7 7-11 16-11 26l0 365c0 10 4 19 11 26 7 7 16 11 26 11l36 0 0 27c0 13 5 24 14 33 9 9 20 13 32 13l18 0c13 0 24-4 33-13 9-9 13-20 13-33l0-27 110 0 0 27c0 13 4 24 13 33 9 9 20 13 33 13l18 0c12 0 23-4 32-13 9-9 14-20 14-33l0-27 36 0c10 0 19-4 26-11 7-7 11-16 11-26z"/>
<glyph glyph-name="favorites-active" unicode="&#84;" d="M256 67c-31 17-60 37-84 60-23 21-43 45-58 74-26 49-24 92 4 120 11 9 24 15 40 15 34-2 64-15 92-33 5-3 9-3 15 0 54 35 108 43 132 18 30-29 31-72 4-120-16-27-35-53-58-74-27-23-56-43-87-60z"/>
<glyph glyph-name="book" unicode="&#103;" d="M434 411c0 7-6 13-13 13-9 0-14 7-14 14l0 11c0 9 7 15 14 15 7 0 13 5 13 12 0 8-6 13-13 13l-302 0c-22 0-42-18-42-42l1-309c0-23 19-43 43-43l11 0 0-61c0-7 6-13 13-13 3 0 4 0 7 2l40 24 40-24c6-5 14-2 17 4 1 1 1 4 1 7l0 61 172 0c8 0 13 6 13 13z m-332 36c0 8 8 17 17 17l265 0c-1-5-3-10-3-15l-232 0c-4 0-5-2-5-7 0-4 2-5 7-5l232 0c0-5 1-9 2-13l-283-2z m96-373c-5 3-9 3-13 0l-27-17 0 38 68 0 0-38z m-79 48c-8 0-17 7-17 17l0 258 306 1 2-274z m234 225l-192 0c-7 0-12-6-12-11l0-100c0-7 6-11 12-11l192 0c7 0 11 5 11 11l0 100c0 5-6 11-11 11z m-13-100l-168 0 0 76 169 0 0-76z"/>
<glyph glyph-name="bag" unicode="&#110;" d="M407 428l-26 0c-7 0-13-6-13-13l0-267c0-7 6-13 13-13 7 0 13 6 13 13l0 254 11 0c44 0 80-35 80-79l0-117c0-44-36-79-80-79l-241 0c-8 0-13-6-13-13 0-7 5-13 13-13l243 0c58 0 105 47 105 105l0 117c0 58-47 105-105 105z m-226 7c7 0 12 6 12 13 0 11 9 20 20 20l67 0c12 0 20-9 20-20 0-7 6-13 13-13 8 0 14 6 14 13 0 26-21 47-47 47l-67 0c-25 0-47-21-47-47 2-7 8-13 15-13z m-50-40c-7 0-13-5-13-12l0-255-13 0c-44 0-78 36-79 80l0 116c0 44 35 80 79 80l243 0c8 0 13 6 13 13 0 7-5 13-13 13l-243 0c-58-2-105-49-105-107l0-117c0-58 47-105 105-105l26 0c7 0 13 6 13 13l0 267c0 7-6 14-13 14z m54-308c-9 0-16-7-16-16 0-8 7-16 16-16 8 0 16 8 16 16 0 9-8 16-16 16z m202 5c-7 0-13-5-14-12l0-17c0-12-9-20-20-20l-194 0c-11 0-20 8-20 20l0 17c0 7-5 12-12 12-8 0-13-5-13-12l0-17c0-26 21-47 47-47l193 0c26 0 47 21 47 47l0 17c-1 7-7 12-14 12z m-66 191c-1 0-2 1-2 0l-49 0 10 91c0 3-1 6-4 7 0 0-2 0-2 0-2 0-4-1-5-4l-66-132c-1-2-1-5 0-7 2-2 3-3 6-3l48 0-10-89c0-2 2-5 5-7 0 0 1 0 1 0 3 0 4 2 6 3l65 130c0 5 0 10-3 11z m6-196c-8 0-16-7-16-16 0-8 8-16 16-16 9 0 16 8 16 16 0 9-7 16-16 16z"/>
<glyph glyph-name="windb" unicode="&#70;" d="M0 31l85 0 0 455-85 0z m28 427l29 0 0-398-29 0z m171-341l313 0-412 327 0-327 71 0 0-44-29 25 0-33 43-38 43 38 0 33-29-25z m-71 28l0 239 302-240-231 0 0 66c0 9-6 15-14 15-9 0-14-6-14-15l0-66-43 0z"/>
<glyph glyph-name="windr" unicode="&#107;" d="M128 382l302-240-302 0 0 242m-28 52l0-322 412 0-412 327z m-43 19l0-398-29 0 0 398 29 0m28 29l-85 0 0-456 85 0z m114-285l-128 0c-8 0-14 6-14 14 0 8 6 15 14 15l128 0c8 0 14-7 14-15 0-8-6-14-14-14z m-43-28l39 42-39 43 33 0 39-43-39-42z"/>
<glyph glyph-name="yacht" unicode="&#106;" d="M107 162l108 0c5 0 11 4 11 12l0 173c0 6-3 10-8 11-6 2-10 0-13-4l-108-173c-3-3-3-7 0-12 1-4 5-7 10-7z m96 144l0-121-76 0z m262-165c-1 4-6 7-10 5l-195 0 0 16 171 0c4 0 8 3 10 6 3 4 3 8 0 11l-184 282c-2 5-10 7-15 4-3-1-6-6-6-10l0-307-179 0c-4 0-9-3-10-6-3-4-1-8 1-11l57-78c2-3 6-5 10-5l285 0c4 0 7 2 8 5l57 78c3 1 3 6 0 10z m-205 61l0 213 150-230-150 0z m133-134l-274 0-39 56 354 0z m-188 20c4 4 4 12 0 16-4 4-12 4-16 0-4-4-4-12 0-16 4-4 12-4 16 0z m-7-4c-3 0-7 1-9 4-4 6-4 13 0 19 6 5 13 5 19 0 2-3 4-6 4-9 0-4-2-7-4-10-3-3-7-4-10-4z m0 23c-3 0-6-2-7-3-5-4-5-10 0-14 1-2 4-3 7-3 3 0 5 1 7 3 1 1 3 4 3 7 0 3-2 4-3 7-3 1-4 3-7 3z m-20-19c4 4 4 12 0 16-4 4-12 4-16 0-4-4-4-12 0-16 3-4 12-4 16 0z m-9-4c-3 0-7 1-8 4-5 6-5 13 0 19 5 5 13 5 18 0 3-3 4-6 4-9 0-4-1-7-4-10-3-3-7-4-10-4z m0 23c-3 0-5-2-7-3-4-4-4-10 0-14 2-2 4-3 7-3 3 0 6 1 7 3 2 1 3 4 3 7 0 3-1 4-3 7-1 1-4 3-7 3z m-20-19c5 4 5 12 0 16-4 4-11 4-15 0-6-4-6-12-2-16 5-4 12-4 17 0z"/>
<glyph glyph-name="beds" unicode="&#105;" d="M118 295l90 0 0 57-132 0 0-57z m-23 38l94 0 0-19-94 0z m398-113l0 56-436 0 0 151-57 0 0-342 57 0 0 78 398 0 0-76 57 0 0 133z m-19 38l0-38-417 0 0 38z m19-81l0-71-19 0 0 76-436 0 0-78-19 0 0 304 19 0 0-207 455 0z"/>
<glyph glyph-name="length" unicode="&#108;" d="M85 108c2-3 6-4 9-4l324 0c3 0 7 1 9 4l48 71c3 4 1 12-3 14-1 2-4 2-6 2l-420 0c-6 0-10-4-10-10 0-2 0-4 1-6z m360 67l-33-50-312 0-33 50z m-176 45l146 0c6 0 10 5 10 10 0 2 0 3-1 5l-147 271c-3 5-7 7-11 6-4-1-7-6-7-10l0-272c0-5 4-10 10-10z m10 244l121-224-121 0z m-169-242c1-2 2-2 4-2l108 0c6 0 10 5 10 10l0 197c0 5-4 10-10 10-4 0-7-2-9-6l-108-195c-3-4-1-11 5-14z m102 166l0-146-80 0z m239-325l-27 0 21-22-378 0 21 22-27 0-31-32 31-31 27 0-21 23 378 0-21-23 27 0 31 31z"/>
<glyph glyph-name="cabins" unicode="&#109;" d="M499 272c-75 84-210 113-313 113l-185 0 0-258 187 0c101 0 236 29 313 113l14 16z m-11-20c-73-81-204-110-302-110l-169 0 0 228 169 0c98 0 228-29 300-108l5-5z m-444-90l152 0 0 85-152 0z m17 68l120 0 0-52-120 0z m-17 35l152 0 0 85-152 0z m17 69l120 0 0-52-120 0z m161-121l152 0 0 86-152 0z m16 70l119 0 0-53-119 0z"/>
</font>
</defs>
</svg>
