<?xml version="1.0" encoding="utf-8"?>
<!-- Generator: Adobe Illustrator 21.1.0, SVG Export Plug-In . SVG Version: 6.00 Build 0)  -->
<svg version="1.1" id="Слой_1" xmlns="http://www.w3.org/2000/svg" xmlns:xlink="http://www.w3.org/1999/xlink" x="0px" y="0px"
	 viewBox="0 0 105 40" style="enable-background:new 0 0 105 40;" xml:space="preserve">
<style type="text/css">
	.st0{fill:#FFFFFF;}
	.st1{fill:#5C6771;}
	.st2{fill:#2967B2;}
</style>
<path class="st0" d="M99,40H6c-3.3,0-6-2.7-6-6V6c0-3.3,2.7-6,6-6h93c3.3,0,6,2.7,6,6v28C105,37.3,102.3,40,99,40z"/>
<g>
	<g id="Logo_1_">
		<path id="GLOBE_WHITE_copy_2" class="st1" d="M14.71049,20.90196c-0.47059-1.17647-0.98039-2.19608-1.56863-3.05882
			c-0.78431,0.31372-1.72549,0.66667-2.78431,0.94118s-2.07843,0.47059-2.90196,0.58824c-0.07843,1.01961,0,2.19608,0.15686,3.41176
			c1.09804-0.15686,2.27451-0.39216,3.60784-0.7451S13.69089,21.33333,14.71049,20.90196z M15.88696,25.01961
			c-0.11765-0.58823-0.23529-1.17647-0.39216-1.80392c-0.11765-0.43137-0.23529-0.82353-0.35294-1.2549
			c-1.01961,0.47059-2.23529,0.90196-3.52941,1.2549c-1.33333,0.35294-2.58823,0.58824-3.72549,0.70588
			c0.07843,0.43137,0.19608,0.82353,0.31372,1.2549c0.15686,0.62745,0.35294,1.17647,0.54902,1.76471
			c1.13725-0.15686,2.39216-0.39216,3.68627-0.7451C13.65167,25.84314,14.82814,25.45098,15.88696,25.01961z M12.67128,17.17647
			c-0.70588-0.90196-1.41177-1.4902-2.11765-1.72549c-0.27451,0.11765-0.58824,0.27451-0.98039,0.35294
			c-0.39216,0.11765-0.7451,0.15686-1.01961,0.15686c-0.47059,0.54902-0.82353,1.45098-0.98039,2.58824
			c0.7451-0.11765,1.64706-0.31373,2.58823-0.58824C11.10265,17.68627,11.92618,17.45098,12.67128,17.17647z M11.18108,31.49019
			c0.39216,0.47059,0.78431,0.86275,1.21569,1.09804c1.13725-0.07843,2.19608-0.39215,3.13726-0.82353
			c0.19608-0.43137,0.39216-0.98039,0.47059-1.56863c-0.7451,0.35294-1.56863,0.62745-2.39216,0.86274
			C12.78893,31.2549,11.9654,31.37255,11.18108,31.49019z M16.08304,26.43137c-0.98039,0.47059-2.11765,0.86275-3.33333,1.21568
			c-1.21569,0.31372-2.43137,0.54902-3.52941,0.62745c0.39216,0.82353,0.78431,1.60784,1.21569,2.27451l0.70588-0.11765
			c0.11765,0,0.23529-0.03922,0.35294-0.07843c0.11765-0.03922,0.23529-0.03922,0.35294-0.07843
			c0.11765-0.03922,0.23529-0.03922,0.35294-0.07843c0.11765-0.03922,0.23529-0.03922,0.35294-0.07843
			c0.11765-0.03922,0.23529-0.03922,0.35294-0.07843c0.11765-0.03922,0.23529-0.07843,0.35294-0.07843l0.35294-0.11765
			l0.35294-0.11765l0.35294-0.11765l0.35294-0.11765c0.47059-0.15686,0.94118-0.35294,1.37255-0.5098
			C16.20069,28.19608,16.16148,27.33333,16.08304,26.43137z"/>
		<path id="GLOBE_WHITE_copy_3" class="st2" d="M6.985,30.54902c0.07843,0,0.15686,0,0.19608,0.03922H7.2203
			c0.07843,0,0.15686,0,0.23529,0.03922h1.84314c-0.54902-0.66667-1.01961-1.45098-1.45098-2.31373
			c-1.96078-0.03922-3.45098-0.43137-4.27451-1.13725c0.5098,1.17647,1.21569,2.19608,2.11765,3.01961
			c0.03922,0.03922,0.11765,0.03922,0.15686,0.07843c0.15686,0.07843,0.35294,0.11765,0.5098,0.15686
			c0.07843,0,0.11765,0.03922,0.19608,0.03922C6.67128,30.5098,6.82814,30.54902,6.985,30.54902z M7.2203,27.05882
			c-0.19608-0.47059-0.35294-0.98039-0.47059-1.4902C6.59285,25.05882,6.51442,24.5098,6.39677,24
			c-1.72549,0-2.98039-0.31372-3.52941-0.90196c-0.07843,0.98039,0,1.96078,0.27451,2.98039l0.11765,0.35294
			C3.9654,26.90196,5.37716,27.13726,7.2203,27.05882z M6.27912,22.98039c-0.11765-1.2549-0.07843-2.43137,0.15686-3.4902
			c-1.29412,0.03922-2.07843-0.19608-2.03922-0.62745c-0.7451,1.09804-1.2549,2.39216-1.41176,3.76471
			C3.41638,22.98039,4.63206,23.09804,6.27912,22.98039z M16.39677,21.33333c0.19608,0.47059,0.35294,0.98039,0.47059,1.52941
			c0.15686,0.5098,0.23529,1.05882,0.35294,1.56863c1.64706-0.82353,2.7451-1.72549,3.09804-2.50981
			c-0.03922-0.11765-0.07843-0.27451-0.07843-0.39216c-0.27451-0.98039-0.66667-1.88235-1.21569-2.66667
			C18.82814,19.56863,17.88697,20.47059,16.39677,21.33333z M6.63206,18.66667c0.35294-1.17647,0.90196-2.11765,1.64706-2.70588
			c-0.19608,0-0.35294-0.07843-0.39216-0.15686c-1.29412,0.62745-2.39216,1.52941-3.21569,2.66667
			C4.63206,18.7451,5.37716,18.82353,6.63206,18.66667z M6.86736,31.13726C8.20069,32,9.76932,32.5098,11.41638,32.54902
			c-0.47059-0.27451-0.94118-0.62745-1.37255-1.01961C8.86736,31.56863,7.76932,31.45098,6.86736,31.13726z M16.31834,31.29412
			c1.37255-0.82353,2.47059-2.03921,3.17647-3.41176c-0.62745,0.66667-1.4902,1.29412-2.5098,1.84314
			C16.82814,30.27451,16.59285,30.82353,16.31834,31.29412z M15.18108,15.68628c-1.29412-0.54902-2.70588-0.82353-4.15686-0.70588
			c0,0.11765-0.11765,0.23529-0.27451,0.35294C11.69089,15.4902,12.63206,16,13.53402,16.86275
			C14.67128,16.35294,15.25951,15.92157,15.18108,15.68628z M20.43599,22.7451c-0.39216,1.01961-1.4902,2.07843-3.09804,3.01961
			c0.07843,0.98039,0.03922,1.88235-0.07843,2.70588l0.23529-0.11765h0.03922c0.07843-0.03922,0.15686-0.07843,0.19608-0.11765
			h0.03922c0.07843-0.03922,0.11765-0.07843,0.19608-0.11765S18.08304,28.03922,18.16147,28h0.03922
			c0.11765-0.07843,0.27451-0.15686,0.39216-0.23529c0.07843-0.03922,0.11765-0.07843,0.19608-0.11765l0.35294-0.23529
			c0.11765-0.07843,0.23529-0.15686,0.31373-0.27451c0.15686-0.11765,0.27451-0.27451,0.43137-0.39216
			c0.07843-0.07843,0.15686-0.15686,0.23529-0.27451C20.4752,25.25491,20.59284,24.00001,20.43599,22.7451z M18.67128,18.39216
			c-0.82353-1.05882-1.88235-1.92157-3.05882-2.5098c0.15686,0.39216-0.39216,0.94118-1.52941,1.52941
			c0.70588,0.82353,1.33333,1.80392,1.88235,2.94118C17.45559,19.64706,18.43599,18.94118,18.67128,18.39216z"/>
		<path id="TM" class="st1" d="M98.08305,14h0.58823v1.72549h0.43137V14h0.58824v-0.39216h-1.60785V14z M101.61245,13.64706
			l-0.54902,1.60784l-0.5098-1.60784h-0.62745v2.07843h0.39216V14.7451c0-0.11765,0-0.35294-0.03922-0.66667l0.5098,1.64706h0.39216
			l0.54902-1.64706v1.64706h0.43137v-2.11765h-0.54902V13.64706z"/>
		<path id="SYS" class="st1" d="M68.00462,22.27451c-2.54902-0.43137-4.15686-0.54902-4.7451-1.45098
			c-0.58823-0.94118,0.03922-2.07843,0.58824-2.31373c0.5098-0.23529,1.37255-0.7451,4.07843-0.43137
			c2.70588,0.27451,3.41177,1.52941,3.37255,2.54902c0.19608-0.35294,0.98039-1.76471,0.66666-2.7451
			c-0.31372-1.01961-1.13725-1.56863-2.47059-1.84314c-1.33333-0.31373-3.64706-0.43137-5.05882-0.19608
			c-1.41176,0.23529-3.33333,0.7451-4.07843,2.62745c-0.74509,1.88235-0.11765,3.72549,0.27451,4.19608
			c0.43137,0.5098,1.09804,1.41176,3.56863,1.84314c2.4706,0.43137,3.80392,0.58824,4.66666,1.29412
			c0.86275,0.70588,0.90196,2.5098-0.5098,3.29412s-4,0.39216-4.54902,0.27451c-0.54902-0.11765-2.70588-0.47059-2.70588-2.31373
			c0,0-0.90196,1.17647-0.78432,2.15686c0.11765,0.98039,0.62746,1.45098,1.76471,1.96078
			c1.13725,0.50981,3.41176,0.70588,4.90197,0.58824c1.4902-0.11765,3.37255-0.47059,4.70588-2.15686
			s0.70589-4.39216,0.19608-5.17647C71.37716,23.68627,70.51442,22.70588,68.00462,22.27451z M97.57324,24.47059
			c-0.5098-0.7451-1.37255-1.76471-3.92157-2.19608s-4.15687-0.54902-4.7451-1.45098
			c-0.58823-0.94118,0.03922-2.07843,0.58823-2.31373c0.5098-0.23529,1.37255-0.7451,4.07843-0.43137
			c2.70588,0.27451,3.41177,1.52941,3.37255,2.54902c0.19608-0.35294,0.98039-1.76471,0.66666-2.7451
			c-0.31372-1.01961-1.13725-1.56863-2.47059-1.84314c-1.33333-0.31373-3.64706-0.43137-5.05882-0.19608
			c-1.41177,0.23529-3.33333,0.7451-4.07842,2.62745c-0.7451,1.88235-0.11765,3.72549,0.27451,4.19608
			c0.43137,0.5098,1.09804,1.41176,3.56863,1.84314c2.4706,0.43137,3.80392,0.58824,4.66667,1.29412
			c0.86274,0.70588,0.90195,2.5098-0.50981,3.29412s-4,0.39216-4.54902,0.27451c-0.54902-0.11765-2.70588-0.47059-2.70588-2.31373
			c0,0-0.90196,1.17647-0.78432,2.15686c0.11765,0.98039,0.62746,1.45098,1.76471,1.96078
			c1.13725,0.50981,3.41176,0.70588,4.90196,0.58824c1.4902-0.11765,3.37255-0.47059,4.70588-2.15686
			C98.74971,27.92157,98.12226,25.21568,97.57324,24.47059z M83.92618,15.84314c-0.35294,0.03922-1.17647,0.27451-1.80392,1.2549
			c0,0-0.82353,1.68627-1.01961,2.03922s-1.52941,3.17647-2,3.68627c-0.35294-0.39216-1.09805-1.76471-1.25491-2.11765
			s-1.29411-2.58823-1.41177-2.82353c-0.11765-0.27451-0.5098-1.29412-1.2549-1.68627
			c-0.74509-0.39216-1.45098-0.5098-2.86275-0.19608c0,0,0.74509,1.29412,1.05882,1.88235
			c0.27451,0.58824,1.68627,3.56863,2.15686,4.35294c0.47059,0.78431,1.17648,1.92157,2.07844,2.82353v5.29412
			c0,0,0,0.54902,0.47058,0.86274c0.47059,0.31373,1.05882,0.50981,2.43137,0.58824v-6.7451c0,0,0.90196-0.94118,1.64706-2.11765
			c0.86275-1.33333,1.60785-2.94118,2.43137-4.66667c0.74509-1.56863,1.01961-1.96078,1.17647-2.23529
			C85.84773,16.03922,84.98499,15.72549,83.92618,15.84314L83.92618,15.84314z"/>
		<path id="Nau" class="st2" d="M33.92618,15.92157v9.05882c0,0,0.03922,1.41176,0.23529,2.15686l-6.11765-9.60784
			c0,0-0.27451-0.58824-0.82353-1.01961c-0.5098-0.39216-1.41176-0.58824-3.33333-0.58824l0.03922,14.62745
			c0,0,0.15686,1.17647,2.90196,1.21568v-9.68627c0,0-0.07843-1.29412-0.23529-1.96078
			C32.94579,30.19608,32.985,30.27451,32.985,30.27451s0.7451,1.4902,3.92157,1.4902V17.37255
			C36.90657,17.37255,37.02422,16,33.92618,15.92157z M46.59285,21.09804c-1.29412-1.01961-2.86274-1.01961-3.7647-1.05882
			C41.9654,20,40.55363,20.27451,39.9654,20.58824c-0.62745,0.31372-1.29412,0.70588-1.45098,1.80392
			c-0.15686,1.09804,0.82353,2.23529,0.82353,2.23529c0.15686-2.70588,3.37255-2.43137,4.11765-2.39216
			c0.78431,0.03922,1.64706,0.66667,1.4902,1.45098c-0.15686,0.7451-3.37255,1.37255-3.72549,1.4902
			c-0.35294,0.07843-2.39215,0.66667-2.82353,2.07843c-0.43137,1.41176-0.11765,2.58824,0.66667,3.41176
			c0.78431,0.86274,2.39215,1.13726,3.41176,1.17647s2.62745-0.35294,3.60784-0.39216s1.68628,0.35294,1.68628,0.35294v-7.96078
			C47.7301,23.60784,47.88697,22.11765,46.59285,21.09804z M44.985,29.41177c0,0-0.98039,0.43137-2.03922,0.39216
			c-1.01961-0.03922-1.84314-0.39216-1.92157-1.21569c-0.11765-0.86275,0.27451-1.13725,0.86275-1.49019
			c0.58823-0.31373,1.76471-0.43137,2.35294-0.66667c0.58823-0.23529,0.7451-0.54902,0.7451-0.54902V29.41177z M58.94579,21.4902
			c0,0,0.03922-0.70588-1.05882-1.09804C56.74971,20,56.31834,20.11765,56.12226,20.11765v9.2549
			c0,0-2.15686,0.54902-3.13726,0.15686c-0.98039-0.43137-1.01961-1.05882-1.01961-1.92157v-6c0,0,0.11765-0.7451-0.94117-1.13726
			c-1.05882-0.39216-1.72549-0.31372-1.88235-0.35294v7.96078c0,0-0.03922,1.45098,0.70588,2.31372s2,1.33333,3.60784,1.41176
			c1.64706,0.03922,2.58824-0.54902,3.60784-0.47059c1.01961,0.07843,1.45098,0.27451,1.88235,0.47059
			C58.98501,29.7647,58.94579,21.49019,58.94579,21.4902z"/>
	</g>
	<path id="POWERED_BY" class="st1" d="M27.02422,8.11765C26.90657,8,26.78893,7.88235,26.63206,7.80392
		c-0.15686-0.07843-0.31373-0.15686-0.47059-0.19608c-0.15686-0.03922-0.27451-0.03922-0.39216-0.07843h-1.52941
		c-0.07843,0-0.15686,0.03922-0.19608,0.07843C23.9654,7.64706,23.9654,7.72549,23.9654,7.84314v5.13726
		c0,0,0.03922,0.03922,0.07843,0.03922c0.03922,0,0.07843,0,0.11765,0.03922h0.31372c0.03922,0,0.07843,0,0.11765-0.03922
		c0.03922,0,0.03922-0.03922,0.07843-0.03922v-2.03922h0.62745c0.35294,0,0.62745-0.03922,0.86274-0.11765
		c0.23529-0.07843,0.43137-0.19608,0.62745-0.35294c0.15686-0.15686,0.31373-0.35294,0.39216-0.54902
		c0.07843-0.23529,0.11765-0.47059,0.11765-0.7451c0-0.19608-0.03922-0.39216-0.07843-0.54902
		C27.2203,8.39216,27.14187,8.23529,27.02422,8.11765z M26.51441,9.64706C26.4752,9.80392,26.39677,9.92157,26.27912,10
		c-0.11765,0.11765-0.23529,0.19608-0.35294,0.23529c-0.15686,0.03922-0.31372,0.07843-0.54902,0.07843h-0.66667V8.11765h0.66667
		c0.11765,0,0.23529,0,0.39216,0.03922c0.11765,0.03922,0.27451,0.07843,0.39216,0.15686s0.23529,0.19608,0.31373,0.35294
		c0.07843,0.15686,0.11765,0.35294,0.11765,0.54902C26.59285,9.37255,26.55363,9.4902,26.51441,9.64706z M32.63206,8.15686
		c-0.19608-0.23529-0.43137-0.39216-0.7451-0.54902c-0.31373-0.11765-0.66667-0.19608-1.05882-0.19608
		c-0.43137,0-0.78432,0.07843-1.09804,0.19608s-0.58823,0.31373-0.78431,0.58824c-0.19608,0.23529-0.35294,0.54902-0.47059,0.90196
		c-0.11765,0.35294-0.15686,0.7451-0.15686,1.17647c0,0.47059,0.03922,0.86275,0.15686,1.21569
		c0.07843,0.35294,0.23529,0.62745,0.43137,0.86275s0.43137,0.43137,0.7451,0.54902
		c0.31373,0.11765,0.66667,0.19608,1.05882,0.19608c0.43137,0,0.78431-0.07843,1.09804-0.19608
		c0.31372-0.11765,0.58823-0.31373,0.78431-0.58824c0.19608-0.23529,0.35294-0.54902,0.47059-0.90196
		c0.11765-0.35294,0.15686-0.7451,0.15686-1.21569c0-0.47059-0.03922-0.82353-0.15686-1.17647
		C32.985,8.66667,32.82814,8.39216,32.63206,8.15686z M32.39677,11.09804c-0.03922,0.27451-0.15686,0.5098-0.27451,0.70588
		s-0.31372,0.35294-0.5098,0.47059c-0.23529,0.11765-0.47059,0.19608-0.82353,0.19608c-0.31373,0-0.58824-0.03922-0.78432-0.15686
		c-0.19608-0.11765-0.39216-0.27451-0.5098-0.47059c-0.11765-0.19608-0.23529-0.43137-0.27451-0.70588
		s-0.07843-0.58823-0.07843-0.90196c0-0.27451,0.03922-0.58823,0.07843-0.82353s0.15686-0.5098,0.27451-0.70588
		c0.11765-0.19608,0.31373-0.35294,0.5098-0.47059c0.19608-0.11765,0.47059-0.19608,0.78432-0.19608
		s0.58823,0.03922,0.78431,0.15686c0.19608,0.11765,0.39216,0.27451,0.5098,0.47059
		c0.11765,0.19608,0.23529,0.43137,0.27451,0.70588c0.03922,0.27451,0.07843,0.54902,0.07843,0.86275
		C32.4752,10.54902,32.43598,10.82353,32.39677,11.09804z M41.06343,7.4902h-0.39215c-0.03922,0-0.07843,0-0.11765,0.03922
		c-0.03922,0-0.03922,0.03922-0.03922,0.03922c0,0.03922,0,0.03922-0.03922,0.07843l-1.21569,4.58824l-1.2549-4.58824
		c0-0.03922,0-0.03922-0.03922-0.07843c0-0.03922-0.03922-0.03922-0.07843-0.03922S37.80853,7.4902,37.76932,7.4902h-0.39215
		c-0.03922,0-0.07843,0-0.11765,0.03922c-0.03922,0-0.03922,0.03922-0.07843,0.03922c0,0.03922-0.03922,0.03922-0.03922,0.07843
		l-1.17647,4.58824l-1.17647-4.58824c0-0.03922,0-0.03922-0.03922-0.07843l-0.03922-0.03922c-0.03922,0-0.07843,0-0.11765-0.03922
		h-0.43137c-0.03922,0-0.07843,0-0.11765,0.03922c-0.03922,0.03922-0.03922,0.03922-0.03922,0.07843s0,0.07843,0.03922,0.15686
		l1.45098,5.05882c0,0.03922,0.03922,0.07843,0.03922,0.07843c0.03922,0.03922,0.03922,0.03922,0.07843,0.03922
		s0.07843,0.03922,0.15686,0.03922h0.47059c0.03922,0,0.11765,0,0.15686-0.03922c0.03922,0,0.07843-0.03922,0.07843-0.03922
		c0.03922-0.03922,0.03922-0.03922,0.03922-0.07843l1.05883-4.15686l1.13726,4.15686c0,0.03922,0.03922,0.07843,0.03922,0.07843
		c0.03922,0.03922,0.03922,0.03922,0.07843,0.03922s0.07843,0.03922,0.15686,0.03922h0.43137c0.03922,0,0.11765,0,0.15686-0.03922
		c0.03922,0,0.07843-0.03922,0.07843-0.03922c0.03922-0.03922,0.03922-0.03922,0.03922-0.07843l1.45098-5.05882
		c0-0.07843,0.03922-0.11765,0.03922-0.15686c0-0.03922,0-0.07843-0.03922-0.07843
		C41.14186,7.52941,41.10265,7.52941,41.06343,7.4902z M45.37716,12.47059c0-0.03922-0.03922-0.03922-0.03922-0.03922h-2.23529
		v-1.96078h1.92157l0.03922-0.03922c0-0.03922,0.03922-0.03922,0.03922-0.07843v-0.11765v-0.15686
		c0-0.03922,0-0.07843-0.03922-0.07843c0-0.03922-0.03922-0.03922-0.03922-0.03922h-1.92157V8.23529h2.23529l0.03922-0.03922
		c0-0.03922,0.03922-0.03922,0.03922-0.07843V8V7.84314c0-0.03922,0-0.07843-0.03922-0.07843
		c0-0.03922-0.03922-0.03922-0.03922-0.03922h-2.66667c-0.07843,0-0.11765,0.03922-0.19608,0.07843
		c-0.03922,0.03922-0.07843,0.11765-0.07843,0.23529v4.90196c0,0.11765,0.03922,0.19608,0.07843,0.23529
		c0.03922,0.03922,0.11765,0.07843,0.19608,0.07843h2.70588l0.03922-0.03922c0-0.03922,0.03922-0.03922,0.03922-0.07843v-0.11765
		v-0.15686C45.41638,12.54902,45.37716,12.5098,45.37716,12.47059z M50.35755,12.58823l-0.5098-1.21569
		c-0.03922-0.15686-0.11765-0.27451-0.15686-0.39216c-0.03922-0.11765-0.11765-0.19608-0.19608-0.27451
		c-0.07843-0.07843-0.11765-0.15686-0.19608-0.23529c-0.07843-0.07843-0.15686-0.11765-0.23529-0.15686
		c0.15686-0.03922,0.31372-0.11765,0.43137-0.19608c0.11765-0.07843,0.23529-0.19608,0.35294-0.27451
		c0.07843-0.11765,0.15686-0.23529,0.19608-0.39216c0.03922-0.15686,0.07843-0.31373,0.07843-0.5098
		s-0.03922-0.35294-0.07843-0.5098S49.88696,8.11765,49.80853,8c-0.11765-0.11765-0.23529-0.23529-0.39216-0.31373
		c-0.15686-0.07843-0.35294-0.15686-0.54902-0.15686c-0.07843,0-0.15686,0-0.23529-0.03922h-1.52941
		c-0.07843,0-0.11765,0.03922-0.19608,0.07843c-0.11765,0.07843-0.11765,0.15686-0.11765,0.23529v5.17647
		c0,0,0.03922,0.03922,0.07843,0.03922s0.07843,0,0.11765,0.03922h0.31373c0.03922,0,0.07843,0,0.11765-0.03922
		c0.03922,0,0.03922-0.03922,0.07843-0.03922v-2.43137h0.47058c0.15686,0,0.31373,0.03922,0.43137,0.07843
		c0.11765,0.03922,0.23529,0.11765,0.31372,0.19608s0.15686,0.19608,0.23529,0.31373
		c0.07843,0.11765,0.11765,0.27451,0.19608,0.39216l0.5098,1.29412c0,0.03922,0.03922,0.07843,0.03922,0.07843
		c0,0.03922,0.03922,0.03922,0.07843,0.03922s0.07843,0.03922,0.11765,0.03922h0.39216c0.03922,0,0.07843,0,0.11765-0.03922
		c0.03922,0,0.03922-0.03922,0.03922-0.03922v-0.07843V12.7451C50.39677,12.78431,50.39677,12.70588,50.35755,12.58823z
		 M48.71049,9.92157C48.55363,9.96078,48.39677,10,48.20069,10h-0.70588V8.15686h0.98039c0.07843,0,0.15686,0.03922,0.23529,0.03922
		c0.23529,0.07843,0.39216,0.15686,0.47059,0.31373c0.07843,0.15686,0.15686,0.31373,0.15686,0.54902
		c0,0.11765-0.03922,0.27451-0.07843,0.35294c-0.03922,0.11765-0.11765,0.19608-0.19608,0.31373
		C48.985,9.80392,48.86736,9.84314,48.71049,9.92157z M54.67128,12.47059c0-0.03922-0.03922-0.03922-0.03922-0.03922h-2.23529
		v-1.96078h1.92157l0.03922-0.03922c0-0.03922,0.03922-0.03922,0.03922-0.07843v-0.11765v-0.15686
		c0-0.03922,0-0.07843-0.03922-0.07843c0-0.03922-0.03922-0.03922-0.03922-0.03922h-1.92157V8.23529h2.23529l0.03922-0.03922
		c0-0.03922,0.03922-0.03922,0.03922-0.07843V8V7.84314c0-0.03922,0-0.07843-0.03922-0.07843
		c0-0.03922-0.03922-0.03922-0.03922-0.03922H51.9654c-0.07843,0-0.11765,0.03922-0.19608,0.07843
		c-0.03922,0.03922-0.07843,0.11765-0.07843,0.23529v4.90196c0,0.11765,0.03922,0.19608,0.07843,0.23529
		c0.03922,0.03922,0.11765,0.07843,0.19608,0.07843h2.70588l0.03922-0.03922c0-0.03922,0.03922-0.03922,0.03922-0.07843v-0.11765
		v-0.15686C54.71049,12.54902,54.71049,12.5098,54.67128,12.47059z M59.61246,8.23529C59.37716,8,59.10266,7.84314,58.78893,7.68627
		C58.4752,7.56863,58.04383,7.4902,57.57324,7.4902h-1.2549c-0.07843,0-0.11765,0.03922-0.19608,0.07843
		c-0.03922,0.03922-0.07843,0.11765-0.07843,0.23529v4.90196c0,0.11765,0.03922,0.19608,0.07843,0.23529
		c0.03922,0.03922,0.11765,0.07843,0.19608,0.07843h1.17647c0.47059,0,0.86275-0.03922,1.21569-0.15686
		c0.35294-0.11765,0.62745-0.27451,0.86274-0.5098c0.2353-0.23529,0.39216-0.5098,0.54902-0.90196
		c0.11765-0.35294,0.19608-0.78431,0.19608-1.2549c0-0.43137-0.03922-0.78431-0.15686-1.09804
		C60.00462,8.7451,59.84775,8.47059,59.61246,8.23529z M59.41638,11.17647c-0.07843,0.27451-0.19608,0.5098-0.35294,0.66667
		c-0.15686,0.19608-0.35294,0.31373-0.58823,0.39216c-0.2353,0.07843-0.54902,0.11765-0.90196,0.11765h-0.74509V8.11765h0.74509
		c0.39216,0,0.70588,0.03922,0.94117,0.15686c0.2353,0.11765,0.43138,0.23529,0.58824,0.43137s0.27451,0.39216,0.35294,0.66667
		c0.07843,0.27451,0.11765,0.54902,0.11765,0.82353C59.53402,10.58823,59.49481,10.90196,59.41638,11.17647z M67.02422,10.5098
		c-0.07843-0.11765-0.19608-0.19608-0.35294-0.27451c-0.11765-0.07843-0.27451-0.11765-0.43138-0.15686
		c0.11765-0.03922,0.2353-0.11765,0.31373-0.19608s0.15686-0.15686,0.2353-0.27451c0.07843-0.11765,0.11765-0.19608,0.15686-0.31373
		s0.03922-0.23529,0.03922-0.39216c0-0.23529-0.03922-0.43137-0.11765-0.58823S66.7105,8,66.55363,7.88235
		c-0.15686-0.11765-0.31373-0.19608-0.5098-0.27451s-0.47059-0.07843-0.82353-0.07843h-1.2549
		c-0.07843,0-0.11765,0.03922-0.19608,0.07843c-0.03922,0.03922-0.07843,0.11765-0.07843,0.23529v4.90196
		c0,0.11765,0.03922,0.19608,0.07843,0.23529c0.03922,0.03922,0.11765,0.07843,0.19608,0.07843h1.45098
		c0.19608,0,0.39216,0,0.54902-0.03922s0.31373-0.07843,0.43137-0.11765c0.15686-0.07843,0.27451-0.11765,0.39216-0.23529
		c0.11765-0.07843,0.19608-0.19608,0.27451-0.31373c0.07843-0.11765,0.15686-0.23529,0.19608-0.39216
		c0.03922-0.15686,0.07843-0.31373,0.07843-0.47059c0-0.19608-0.03922-0.35294-0.07843-0.5098
		C67.18108,10.78432,67.10265,10.62745,67.02422,10.5098z M64.43598,8.11765h0.7451c0.19608,0,0.39215,0.03922,0.5098,0.07843
		c0.11765,0.03922,0.2353,0.07843,0.31373,0.15686c0.07843,0.07843,0.11765,0.15686,0.15686,0.27451
		s0.03922,0.23529,0.03922,0.35294c0,0.11765,0,0.23529-0.03922,0.35294c-0.03922,0.11765-0.07843,0.19608-0.15686,0.27451
		S65.84776,9.7647,65.7301,9.80392c-0.11765,0.03922-0.27451,0.07843-0.47059,0.07843h-0.82353
		C64.43598,9.88235,64.43598,8.11765,64.43598,8.11765z M66.4752,11.88235C66.43598,12,66.35755,12.07843,66.23991,12.15686
		c-0.07843,0.07843-0.19608,0.11765-0.31373,0.15686c-0.11765,0.03922-0.27451,0.07843-0.43137,0.07843h-1.05882v-1.92157h0.86275
		c0.2353,0,0.43137,0.03922,0.58823,0.07843s0.27451,0.11765,0.39216,0.19608s0.15686,0.19608,0.2353,0.31373
		c0.03922,0.11765,0.07843,0.27451,0.07843,0.43137C66.55363,11.64706,66.55363,11.76471,66.4752,11.88235z M71.69089,7.52941
		C71.65167,7.4902,71.61246,7.4902,71.57324,7.4902h-0.43138c-0.03922,0-0.07843,0-0.11765,0.03922
		c-0.03922,0-0.03922,0.03922-0.07843,0.03922c0,0.03922-0.03922,0.03922-0.03922,0.07843l-0.7451,1.56863
		c-0.07843,0.15686-0.15686,0.31373-0.19608,0.47059C69.88696,9.84314,69.84775,10,69.76932,10.15686
		C69.69089,10,69.61246,9.84314,69.57323,9.64706c-0.07843-0.15686-0.15686-0.31373-0.19608-0.47059l-0.74509-1.56863
		c0-0.03922-0.03922-0.03922-0.03922-0.07843c0,0-0.03922-0.03922-0.07843-0.03922c-0.03921,0-0.07843,0-0.11765-0.03922H67.9654
		c-0.03922,0-0.07843,0-0.11765,0.03922c-0.03922,0.03922-0.03922,0.03922-0.03922,0.07843
		c0,0.03922,0.03922,0.07843,0.03922,0.15686l1.56863,3.09804v2.11765c0,0,0.03922,0.03922,0.07843,0.03922
		c0.03922,0,0.07843,0,0.11765,0.03922h0.31372c0.03922,0,0.07843,0,0.11765-0.03922c0.03922,0,0.03922-0.03922,0.07843-0.03922
		v-2.11765l1.56863-3.09804c0.03922-0.07843,0.03922-0.11765,0.03922-0.15686C71.7301,7.60784,71.7301,7.56863,71.69089,7.52941z"/>
</g>
</svg>
