<?xml version="1.0" encoding="utf-8"?>
<!-- Generator: Adobe Illustrator 21.1.0, SVG Export Plug-In . SVG Version: 6.00 Build 0)  -->
<svg version="1.1"
	 id="Layer_1" inkscape:version="0.91 r13725" sodipodi:docname="Visa_2006.svg" xmlns:cc="http://creativecommons.org/ns#" xmlns:dc="http://purl.org/dc/elements/1.1/" xmlns:inkscape="http://www.inkscape.org/namespaces/inkscape" xmlns:rdf="http://www.w3.org/1999/02/22-rdf-syntax-ns#" xmlns:sodipodi="http://sodipodi.sourceforge.net/DTD/sodipodi-0.dtd" xmlns:svg="http://www.w3.org/2000/svg"
	 xmlns="http://www.w3.org/2000/svg" xmlns:xlink="http://www.w3.org/1999/xlink" x="0px" y="0px" viewBox="0 0 1000 1121.7"
	 style="enable-background:new 0 0 1000 1121.7;" xml:space="preserve">
<style type="text/css">
	.st0{fill:#00579F;}
	.st1{fill:#FAA61A;}
	.st2{fill:#FF5F00;}
	.st3{fill:#EB001B;}
	.st4{fill:#F79E1B;}
</style>
<sodipodi:namedview  bordercolor="#666666" borderopacity="1" gridtolerance="10" guidetolerance="10" id="namedview19" inkscape:current-layer="Layer_1" inkscape:cx="34.690897" inkscape:cy="131.15483" inkscape:pageopacity="0" inkscape:pageshadow="2" inkscape:window-height="705" inkscape:window-maximized="1" inkscape:window-width="1366" inkscape:window-x="-8" inkscape:window-y="-8" inkscape:zoom="0.35355339" objecttolerance="10" pagecolor="#ffffff" showgrid="false">
	</sodipodi:namedview>
<g id="g4158" transform="matrix(4.4299631,0,0,4.4299631,-81.165783,-105.04783)">
	<polygon id="polygon9" class="st0" points="116.1,275.9 97.9,275.9 109.3,205.1 127.6,205.1 	"/>
	<path id="path11" inkscape:connector-curvature="0" class="st0" d="M182.4,206.9c-3.6-1.4-9.3-3-16.4-3c-18.1,0-30.8,9.6-30.9,23.4
		c-0.1,10.2,9.1,15.8,16,19.2c7.1,3.5,9.5,5.7,9.5,8.8c-0.1,4.7-5.7,6.9-11,6.9c-7.3,0-11.2-1.1-17.2-3.8l-2.4-1.1l-2.6,15.9
		c4.3,2,12.2,3.7,20.4,3.8c19.2,0,31.7-9.5,31.8-24.2c0.1-8.1-4.8-14.2-15.4-19.3c-6.4-3.2-10.3-5.4-10.3-8.7
		c0.1-3,3.3-6.1,10.5-6.1c5.9-0.2,10.3,1.3,13.6,2.7l1.7,0.8L182.4,206.9C182.4,206.9,182.4,206.9,182.4,206.9z"/>
	<path id="path13" inkscape:connector-curvature="0" class="st0" d="M206.7,250.8c1.5-4.1,7.3-19.8,7.3-19.8
		c-0.1,0.2,1.5-4.1,2.4-6.8l1.3,6.1c0,0,3.5,16.9,4.2,20.5C219.1,250.8,210.4,250.8,206.7,250.8L206.7,250.8z M229.3,205.1h-14.1
		c-4.4,0-7.7,1.3-9.6,5.9l-27.2,64.9h19.2c0,0,3.2-8.7,3.8-10.6c2.1,0,20.8,0,23.5,0c0.5,2.5,2.2,10.6,2.2,10.6h16.9L229.3,205.1
		L229.3,205.1L229.3,205.1z"/>
	<path id="path15" inkscape:connector-curvature="0" class="st0" d="M82.6,205.1l-17.9,48.2l-2-9.8C59.4,232.3,49,220,37.4,213.9
		l16.4,61.8h19.3l28.7-70.6H82.6L82.6,205.1L82.6,205.1z"/>
	<path id="path17" inkscape:connector-curvature="0" class="st1" d="M48,205.1H18.6l-0.3,1.4c23,5.9,38.2,20,44.4,37l-6.4-32.5
		C55.3,206.6,52,205.3,48,205.1L48,205.1z"/>
</g>
<g transform="translate(1565.7 -1106.8)">
	<g transform="matrix(3.1437 0 0 3.1437 -4835.7 -1027.6)">
		<path class="st2" d="M1242.1,854h-85.8V699.9h85.8V854z"/>
		<g transform="matrix(1.25 0 0 -1.25 1064.5 698.59)">
			<path class="st3" d="M77.8-62.7c0,25,11.7,47.3,29.9,61.6C94.4,9.4,77.6,15.7,59.3,15.7c-43.3,0-78.4-35.1-78.4-78.4
				s35.1-78.4,78.4-78.4c18.3,0,35.1,6.3,48.5,16.8C89.5-110,77.8-87.7,77.8-62.7"/>
		</g>
		<g transform="matrix(1.25 0 0 -1.25 1103.8 698.59)">
			<path class="st4" d="M203.1-62.7c0-43.3-35.1-78.4-78.4-78.4c-18.3,0-35.1,6.3-48.5,16.8c18.2,14.4,30,36.6,30,61.6
				S94.5-15.4,76.3-1c13.3,10.5,30.2,16.8,48.5,16.8C168,15.7,203.1-19.4,203.1-62.7"/>
		</g>
	</g>
</g>
</svg>
